<svg width="58" height="69" viewBox="0 0 58 69" fill="none" xmlns="http://www.w3.org/2000/svg">
<g clip-path="url(#clip0_205_20)">
<path d="M38.6269 53.6447C35.4203 58.7863 32.2786 63.8219 29.0492 69.0018C25.8197 63.8271 22.6658 58.7724 19.4645 53.6412C17.4344 55.5241 15.4992 57.3168 13.4657 59.2014C11.5428 56.1217 9.67955 53.1357 7.75663 50.0577C5.1664 52.1196 2.64642 54.1241 0 56.2329C0.0579508 55.9376 0.0526826 55.776 0.117658 55.6492C3.93012 48.2078 5.40172 40.2574 5.40699 31.9805C5.40874 28.7687 5.35782 25.5517 5.51587 22.3452C5.68445 18.9458 6.81888 15.7931 8.54687 12.7238C8.75409 12.9444 8.90862 13.0937 9.04384 13.2553C9.9974 14.3896 10.9141 15.5551 11.915 16.6477C12.3435 17.1167 12.3945 17.4763 12.1065 18.0182C11.1775 19.7674 10.8017 21.6347 11.3303 23.5611C12.1995 26.7242 14.5228 28.3518 17.6135 29.0553C18.3458 29.2221 19.108 29.2551 19.9017 29.3558C19.8332 30.3702 19.7999 31.3742 19.6717 32.3678C19.6401 32.6145 19.3415 32.8924 19.0939 33.0366C17.1833 34.1587 15.2551 35.253 13.3322 36.356C12.981 36.5575 12.6333 36.7642 12.1732 37.0335C12.4647 37.2298 12.6614 37.3826 12.8774 37.5025C14.1242 38.2008 15.3324 38.9842 16.6336 39.5678C19.5277 40.8688 21.2697 43.1791 22.6324 45.8819C24.7573 50.0977 26.1007 54.5879 27.4441 59.0816C27.8919 60.5789 28.3344 62.0762 28.7858 63.5718C28.842 63.7559 28.9421 63.9262 29.1124 64.3048C29.7727 62.0641 30.3575 60.0161 30.9791 57.9768C32.312 53.6013 33.6624 49.2309 35.8435 45.1697C37.1377 42.7605 38.8341 40.7855 41.405 39.5939C42.9293 38.8869 44.357 37.9784 45.9761 37.0769C45.5564 36.8181 45.2772 36.6357 44.9892 36.4707C43.0136 35.3416 41.045 34.2021 39.0554 33.0991C38.5882 32.8403 38.4056 32.5328 38.3933 32.0065C38.374 31.1415 38.2616 30.2799 38.1843 29.3593C38.8938 29.269 39.5822 29.2082 40.26 29.0918C45.8391 28.1312 48.475 23.1702 46.0428 18.1468C45.7039 17.4485 45.8093 17.0559 46.322 16.507C47.4284 15.3258 48.4293 14.0508 49.5339 12.7429C50.5841 14.4226 51.3848 16.1718 51.7747 18.0252C52.2295 20.193 52.5667 22.4112 52.6668 24.6189C52.8529 28.7513 52.6966 32.8993 52.9232 37.0283C53.2691 43.3319 54.9005 49.3455 57.6681 55.0465C57.8279 55.3765 57.9824 55.7065 58.0035 56.146C55.4888 54.1467 52.9723 52.1491 50.3452 50.0612C48.4434 53.1027 46.5784 56.0852 44.6344 59.191C42.6167 57.3272 40.6674 55.5259 38.6286 53.6429L38.6269 53.6447Z" fill="white"/>
<path d="M51.6605 3.96218C50.7667 5.45776 50.0291 6.97071 49.0405 8.30128C44.9698 13.7816 39.7841 17.9939 33.7432 21.2074C33.2445 21.4732 32.8739 21.4454 32.3857 21.1536C30.1239 19.8039 27.855 19.8438 25.5844 21.1935C25.3157 21.3533 24.8205 21.4124 24.5624 21.2751C17.6697 17.6135 11.7798 12.8401 7.65828 6.1491C7.24209 5.47513 6.94883 4.72647 6.59937 4.01255C6.66785 3.96565 6.7381 3.91702 6.80658 3.87012C7.15956 4.23142 7.46512 4.65699 7.87253 4.94013C8.82081 5.60367 9.79368 6.2429 10.8052 6.80569C11.534 7.21042 12.1784 7.04367 12.8317 6.4166C15.7679 3.5974 19.2274 1.65019 23.2242 0.733042C31.5569 -1.18116 38.9307 0.667035 45.2473 6.40097C45.9427 7.03325 46.5977 7.233 47.3458 6.77964C48.7489 5.93023 50.0994 4.99397 51.664 3.96565L51.6605 3.96218Z" fill="white"/>
<path d="M38.2423 37.0074C32.4841 40.3477 30.9686 46.0712 28.9614 51.6245C28.6787 50.7647 28.4328 49.891 28.1044 49.0485C27.3475 47.11 26.6556 45.1367 25.7337 43.2764C25.112 42.0222 24.2481 40.8445 23.3068 39.7971C22.3673 38.7514 21.1942 37.9124 20.0563 36.9241C20.4865 36.667 20.9642 36.3717 21.4506 36.0885C23.8108 34.7163 23.428 35.2218 23.5667 32.5485C23.6492 30.9539 23.9829 29.3471 24.4149 27.8029C24.8153 26.3733 25.8514 25.3016 27.1157 24.4956C28.4293 23.6584 29.8623 23.7053 31.1407 24.5946C33.3498 26.1319 34.2367 28.364 34.4632 30.9122C34.5493 31.8901 34.5352 32.8768 34.5317 33.8599C34.5282 34.5686 34.8021 35.0637 35.4413 35.4059C36.3369 35.8853 37.208 36.4099 38.2441 37.004L38.2423 37.0074Z" fill="white"/>
<path d="M35.3236 24.6137C37.7488 23.1008 40.1792 21.5844 42.6131 20.0645C43.4051 21.1223 43.3401 22.7655 42.4305 23.8408C40.8974 25.6507 37.2764 26.0398 35.3236 24.612V24.6137Z" fill="white"/>
<path d="M22.7537 24.612C20.8184 26.0329 17.2167 25.6542 15.6942 23.8686C14.7459 22.7569 14.6669 21.2474 15.4747 20.0558C17.9016 21.5739 20.3285 23.0939 22.7537 24.612Z" fill="white"/>
</g>
<defs>
<clipPath id="clip0_205_20">
<rect width="58" height="69" fill="white"/>
</clipPath>
</defs>
</svg>
