<svg width="61" height="62" viewBox="0 0 61 62" fill="none" xmlns="http://www.w3.org/2000/svg">
<path d="M19.1548 31.7401H0.0149076C0.0149076 31.7401 -0.558142 41.6173 5.40158 49.1639C11.3613 56.7105 20.4155 61.5936 29.2404 61.5936C38.0654 61.5936 48.1511 58.1532 54.1108 50.6066C60.0705 43.06 60.7834 35.7354 61 31.7401H41.7857C41.7857 31.7401 41.7329 37.733 37.1485 40.5075C32.5641 43.282 28.3236 42.8381 26.0314 41.8392C23.7392 40.8404 19.6132 38.2879 19.1548 31.7401Z" fill="#0061F2"/>
<path d="M40.5868 0L60.5289 28.0778H40.5868L30.5011 14.0389L40.5868 0Z" fill="#7845EF"/>
<path d="M19.9811 28.0778H0L20.2218 0L30.5011 14.0389L19.9811 28.0778Z" fill="#7845EF"/>
</svg>
