<svg width="47" height="67" viewBox="0 0 47 67" fill="none" xmlns="http://www.w3.org/2000/svg">
<g clip-path="url(#clip0_205_29)">
<path d="M10.9817 30.7747L10.7459 41.6642L1.19763 35.3909L10.9817 30.7747Z" fill="#8487F2"/>
<path d="M36.498 36.4466L36.755 25.5571L46.2915 31.8494L36.498 36.4466Z" fill="#585CB8"/>
<path d="M46.8633 16.5771C45.9203 7.34471 36.9614 -0.230594 27.8846 0.00613421C18.8079 0.242862 13.5033 6.0427 10.792 11.9609C8.64895 16.6375 9.36802 23.5275 13.4573 28.526C15.9328 32.0769 21.9965 36.2504 26.0705 38.7053C30.1963 41.1909 32.9075 46.8724 31.7287 51.7253C30.5499 56.5783 24.8917 60.9577 19.2334 61.3128C13.5752 61.6679 7.68115 58.2354 5.91295 51.2519C4.14475 44.2684 7.97821 39.8451 7.97821 39.8451L3.44336 36.8659C3.44336 36.8659 -0.806221 41.1909 0.13682 50.4233C1.07986 59.6557 10.0388 67.231 19.1155 66.9943C28.1923 66.7576 33.4969 60.9577 36.2081 55.0395C38.9194 49.1213 37.387 39.2971 29.7247 34.7993C22.0625 30.3014 17.701 25.2118 17.701 25.2118C17.701 25.2118 14.1186 22.2467 15.4612 15.6243C16.4538 10.7299 22.1085 6.0427 27.7668 5.68761C33.425 5.33252 39.319 8.76508 41.0872 15.7486C42.8554 22.732 39.0219 27.1553 39.0219 27.1553L43.5568 30.1345C43.5568 30.1345 47.8064 25.8095 46.8633 16.5771Z" fill="#585CB8"/>
<path d="M29.7246 34.7991C25.5623 32.356 22.3748 29.7378 20.3307 27.8558L26.0703 38.7051C30.1961 41.1907 32.9074 46.8722 31.7286 51.7251C30.5498 56.5781 24.8915 60.9575 19.2333 61.3126C13.575 61.6677 7.68103 58.2352 5.91283 51.2517C4.14462 44.2682 7.97809 39.8449 7.97809 39.8449L3.44324 36.8657C3.44324 36.8657 -0.806343 41.1907 0.136698 50.4231C1.07974 59.6555 10.0386 67.2308 19.1154 66.9941C28.1922 66.7574 33.4968 60.9575 36.208 55.0393C38.9193 49.1211 37.3868 39.2969 29.7246 34.7991Z" fill="#8487F2"/>
</g>
<defs>
<clipPath id="clip0_205_29">
<rect width="47" height="67" fill="white"/>
</clipPath>
</defs>
</svg>
