<svg width="37" height="42" viewBox="0 0 37 42" fill="none" xmlns="http://www.w3.org/2000/svg">
<g clip-path="url(#clip0_65_32)">
<path d="M7.66003 24.3999C7.66003 20.5299 7.60003 16.6599 7.68003 12.7899C7.75003 8.84994 8.90003 7.69994 12.9 7.64994C19.01 7.57994 25.13 7.64994 31.24 7.60994C34.6 7.58994 36.37 9.07994 36.36 12.5499C36.34 20.6599 36.33 28.7699 36.37 36.8799C36.39 40.3499 34.71 41.8399 31.31 41.8099C25.07 41.7499 18.83 41.7399 12.59 41.8099C9.08003 41.8499 7.62003 40.1299 7.66003 36.7499C7.71003 32.6299 7.67003 28.5099 7.67003 24.3999C7.67003 24.3999 7.66003 24.3999 7.65003 24.3999H7.66003ZM11.35 24.7499C11.35 28.2399 11.42 31.7399 11.32 35.2299C11.27 37.2299 11.86 38.2499 14.05 38.2199C19.29 38.1399 24.53 38.1499 29.78 38.2099C31.78 38.2299 32.74 37.5499 32.71 35.3899C32.63 28.2799 32.65 21.1599 32.71 14.0499C32.72 12.2099 32.19 11.2799 30.17 11.3099C24.8 11.3899 19.44 11.3899 14.07 11.3099C11.89 11.2799 11.27 12.2599 11.33 14.2699C11.43 17.7599 11.36 21.2599 11.36 24.7499H11.35Z" fill="#01001D" fill-opacity="0.6"/>
<path d="M0.0500247 15.88C0.0500247 12.14 0.0800247 8.39 0.0500247 4.65C0.0100247 1.54 1.58002 0.0400004 4.61002 0.0300004C11.1 3.63216e-07 17.59 -0.0499996 24.08 0.11C24.28 0.11 24.48 0.18 24.67 0.29C25.87 0.94 25.81 2.71 24.58 3.31C24.33 3.44 24.07 3.52 23.82 3.52C18.33 3.67 12.84 3.71 7.35002 3.54C4.50002 3.45 3.38002 4.24 3.49002 7.32C3.72002 14.05 3.62002 20.79 3.49002 27.53C3.49002 27.63 3.47002 27.74 3.45002 27.84C3.12002 29.32 0.980025 29.49 0.310025 28.13C0.200025 27.92 0.140025 27.7 0.120025 27.48C-0.0999753 23.62 0.0300247 19.75 0.0300247 15.88C0.0300247 15.88 0.0400247 15.88 0.0500247 15.88Z" fill="#01001D" fill-opacity="0.6"/>
</g>
<defs>
<clipPath id="clip0_65_32">
<rect width="36.37" height="41.83" fill="white"/>
</clipPath>
</defs>
</svg>
