<svg width="44" height="47" viewBox="0 0 44 47" fill="none" xmlns="http://www.w3.org/2000/svg">
<g clip-path="url(#clip0_11_593)">
<path d="M37.9645 0.72212C38.2232 0.649376 38.4741 0.540567 38.7503 0.544235C38.9507 0.503279 39.1516 0.462934 39.352 0.421978C39.3917 0.426257 39.432 0.431147 39.4717 0.435426C39.4904 0.467824 39.5096 0.469658 39.5307 0.437871C39.6354 0.421366 39.7268 0.429924 39.7876 0.538733C39.988 0.896948 40.1998 1.24966 40.2924 1.658C40.2876 1.66411 40.2768 1.67267 40.2786 1.67634C40.2834 1.68979 40.293 1.7014 40.3003 1.71363C40.3454 1.81449 40.3899 1.91474 40.435 2.0156C40.4579 2.18004 40.4802 2.34509 40.503 2.50952C40.5602 2.83534 40.6167 3.16116 40.6739 3.48697C40.6823 3.57011 40.6901 3.65385 40.6986 3.73699C40.6962 3.79506 40.6938 3.85313 40.6907 3.91121C40.6883 3.97356 40.6865 4.03591 40.6841 4.09826C40.7052 4.34339 40.7262 4.58851 40.7473 4.83364C40.7142 5.09711 40.6474 5.35751 40.6835 5.62648C40.6595 5.89117 40.7004 6.16136 40.624 6.42176C40.654 6.64916 40.5126 6.86311 40.5716 7.09357C40.5415 7.3766 40.5108 7.66023 40.4808 7.94326C40.441 8.14926 40.4013 8.35588 40.3616 8.56188C40.355 8.56677 40.3424 8.57227 40.343 8.57655C40.3442 8.59061 40.3502 8.60467 40.3544 8.61812C40.3622 8.63891 40.37 8.65969 40.3779 8.68047C40.272 8.82779 40.3339 9.01974 40.2491 9.17256C40.1938 9.20862 40.1895 9.24836 40.2413 9.29176C40.2443 9.33027 40.2473 9.36817 40.2497 9.40668C40.2172 9.41891 40.195 9.43664 40.204 9.47698C40.1577 9.72088 40.1113 9.96479 40.065 10.2087C40.0102 10.474 39.8658 10.7203 39.8995 11.0046C39.7485 11.6189 39.5975 12.2327 39.4459 12.847C39.435 12.8684 39.4242 12.8898 39.4134 12.9112C39.3207 13.4302 39.1577 13.9308 39.0181 14.4376C39.0042 14.4504 38.994 14.4657 38.9886 14.484C38.9856 14.7286 38.8243 14.9278 38.7972 15.1656C38.7834 15.1931 38.7696 15.2206 38.7557 15.2488C38.71 15.5581 38.5945 15.8472 38.5 16.1425C38.4934 16.1467 38.4814 16.1504 38.4814 16.1547C38.4802 16.1681 38.4838 16.1816 38.4856 16.1956C38.4567 16.4505 38.3562 16.6822 38.2557 16.9127C38.1167 17.2299 38.0716 17.527 38.2648 17.8571C38.5397 18.3272 38.7888 18.815 39.0126 19.312C39.2515 19.8444 39.5259 20.3652 39.6589 20.9423C39.6751 20.971 39.6907 20.9998 39.707 21.0285C39.7172 21.0444 39.7202 21.0621 39.7154 21.0804C39.7262 21.1018 39.7371 21.1232 39.7479 21.1452C39.7557 21.1697 39.7635 21.1935 39.772 21.218C39.778 21.2382 39.7888 21.2547 39.8051 21.2675C39.914 21.5689 40.0259 21.869 40.0746 22.1881C40.074 22.2364 40.0806 22.2822 40.1252 22.3116C40.2545 22.561 40.2515 22.8446 40.3249 23.1081C40.3412 23.1289 40.3574 23.1496 40.3737 23.1704C40.3827 23.2132 40.3917 23.256 40.4007 23.2988C40.4104 23.3214 40.4206 23.344 40.4302 23.3667C40.4513 23.5268 40.4723 23.6864 40.4934 23.8465L40.5367 23.9596C40.5542 24.066 40.6252 24.1626 40.5927 24.2775C40.55 24.3178 40.5536 24.3551 40.6005 24.3887C40.6089 24.4517 40.6167 24.5147 40.6252 24.5776C40.6414 24.5984 40.6583 24.6186 40.6745 24.6394C40.6841 24.7225 40.6944 24.8056 40.704 24.8888C40.7142 24.9071 40.7244 24.9254 40.7347 24.9432C40.7407 25.0263 40.7467 25.1094 40.7533 25.1926C40.7539 25.2494 40.7545 25.3063 40.7551 25.3637C40.7924 25.571 40.8303 25.7782 40.8676 25.9854C40.8682 26.0441 40.8688 26.1022 40.87 26.1609C40.8857 26.4867 40.9013 26.8131 40.917 27.1389L40.9549 27.2581C40.9784 27.73 41.0024 28.2026 41.0259 28.6745C40.9164 28.6983 40.8345 28.6139 40.7347 28.5987C40.7262 28.551 40.716 28.5033 40.6577 28.4972C40.583 28.4886 40.5638 28.54 40.5542 28.6005C40.133 28.562 39.716 28.4746 39.2912 28.4782C39.281 28.4538 39.2714 28.4287 39.2611 28.4043C39.2485 28.4165 39.2365 28.4293 39.2238 28.4416C39.2052 28.4355 39.1871 28.4379 39.1709 28.4495C39.1504 28.4397 39.13 28.4306 39.1095 28.4208C38.7094 28.3407 38.3099 28.3065 37.9128 28.4391C37.911 28.4544 37.908 28.4697 37.9043 28.485C37.2539 28.4795 36.6143 28.5687 35.9802 28.7081C35.9711 28.694 35.9621 28.68 35.9531 28.6665C35.9573 28.68 35.9621 28.694 35.9663 28.7075C35.9549 28.7166 35.9441 28.7154 35.9344 28.7044C35.8851 28.6677 35.8418 28.6763 35.8039 28.7228C35.7852 28.7307 35.766 28.7344 35.7461 28.7344C35.6769 28.7362 35.6011 28.7191 35.565 28.8065C35.5006 28.8921 35.4104 28.8542 35.3285 28.8579C35.2804 28.8554 35.2347 28.8603 35.2028 28.9043C35.0812 28.9459 34.9597 28.9874 34.8376 29.029C34.781 28.9728 34.7443 28.9777 34.7335 29.0639L34.7353 29.0577C34.7106 29.0657 34.6859 29.0742 34.6613 29.0822C34.2792 29.2503 33.8965 29.4178 33.5145 29.5859C33.4567 29.5315 33.4651 29.5932 33.4543 29.6213C33.2762 29.7179 33.0981 29.8139 32.92 29.9105C32.908 29.8983 32.8959 29.8854 32.8833 29.8732C32.8731 29.897 32.8628 29.9215 32.8532 29.9453C32.766 29.971 32.7407 30.1024 32.627 30.0835C32.6023 30.1012 32.5776 30.1189 32.553 30.1373C32.3731 30.2626 32.1932 30.3873 32.0133 30.5126C31.9284 30.4448 31.9645 30.5383 31.9489 30.5627L31.9417 30.5652C31.926 30.5713 31.9122 30.5805 31.9001 30.5921C31.6775 30.7675 31.4549 30.9436 31.2323 31.119C31.1559 31.1178 31.1131 31.1551 31.1071 31.2333C30.9284 31.399 30.7497 31.5646 30.571 31.7303C30.4928 31.7303 30.4507 31.7682 30.4465 31.8489C30.4062 31.8904 30.3658 31.9314 30.3255 31.973C30.2642 31.973 30.2022 31.973 30.1408 31.973L30.136 31.9504C30.148 31.8678 30.1342 31.8024 30.0367 31.7896C30.0241 31.7272 30.0114 31.6643 29.9982 31.6019C30.0072 31.5909 30.0133 31.5787 30.0169 31.5646L29.9735 31.4852C29.9495 31.4277 29.926 31.3696 29.9019 31.3122C29.8869 31.2883 29.8713 31.2645 29.8562 31.2413C29.852 31.2028 29.8472 31.1642 29.843 31.1257C29.8309 31.1043 29.8195 31.0823 29.8075 31.0609C29.7997 31.0401 29.7918 31.0188 29.784 30.998L29.7359 30.9362C29.7232 30.8934 29.7106 30.8506 29.698 30.8079C29.6877 30.7871 29.6781 30.7663 29.6679 30.7455C29.6655 30.7119 29.6625 30.6783 29.6601 30.644L29.6101 30.5688C29.5072 30.3476 29.4043 30.1269 29.3009 29.9056C29.2846 29.8824 29.2684 29.8591 29.2521 29.8359C29.1252 29.6984 29.0945 29.5095 29.0006 29.3542C28.9844 29.3316 28.9681 29.309 28.9525 29.2864C28.9404 29.2729 28.9356 29.257 28.938 29.2393C28.9218 29.2142 28.9049 29.1886 28.8887 29.1635L28.3989 28.4367C28.3989 28.3798 28.3893 28.3291 28.3255 28.3114L28.2172 28.1971C28.1998 28.1726 28.1829 28.1481 28.1655 28.1243C27.9826 27.9238 27.7991 27.7233 27.6161 27.5228C27.5975 27.4996 27.5782 27.4763 27.5596 27.4531L27.5578 27.4507C27.5421 27.4311 27.5265 27.4122 27.5102 27.3926L27.497 27.3791C27.4753 27.3633 27.4543 27.3474 27.4326 27.3315C27.0728 27.0484 26.7124 26.766 26.3526 26.483C26.343 26.3999 26.334 26.3155 26.2317 26.4225C26.1715 26.384 26.1113 26.3455 26.0506 26.3063C26.0319 26.2409 25.9808 26.2318 25.9248 26.233C25.793 26.2238 25.7154 26.0734 25.5728 26.0936C25.5524 26.0777 25.5325 26.0624 25.512 26.0465H25.5133C25.4898 26.0282 25.4669 26.0093 25.4435 25.9903L25.4471 25.9958C25.4423 25.9555 25.4296 25.9353 25.3947 25.9762C25.3538 25.9542 25.3123 25.9322 25.2714 25.9102C25.2479 25.8962 25.2238 25.8821 25.2004 25.8674C25.1829 25.8717 25.1673 25.868 25.1534 25.8558C25.1294 25.7299 25.071 25.7054 24.9741 25.7922C24.8279 25.7702 24.6817 25.7482 24.5518 25.6688C24.5349 25.582 24.5084 25.5251 24.4278 25.6254C24.2082 25.5783 23.9892 25.5306 23.7696 25.4835C23.7455 25.3613 23.6847 25.3442 23.5921 25.4194C23.5512 25.4206 23.5102 25.4224 23.4687 25.4236C23.4248 25.2653 23.3327 25.2922 23.2305 25.3607C23.2094 25.3619 23.1889 25.3631 23.1679 25.3637C23.0879 25.2011 23.0072 25.2011 22.9272 25.3637C22.8472 25.3436 22.7666 25.3228 22.6865 25.3026C22.5704 25.11 22.4188 25.1761 22.2672 25.2427C22.0855 25.25 21.9031 25.2574 21.7214 25.2647C21.6841 25.2647 21.6468 25.2635 21.6095 25.2635C21.5102 25.1663 21.4206 25.1333 21.3628 25.3032C21.2816 25.3038 21.2004 25.305 21.1191 25.3057C21.0602 25.2341 21.0018 25.2354 20.9441 25.3075C20.8833 25.3136 20.8225 25.3197 20.7617 25.3252C20.7214 25.3197 20.7082 25.3448 20.7028 25.379C20.5614 25.401 20.42 25.423 20.2786 25.445C20.2389 25.4371 20.2232 25.4609 20.2154 25.4945C19.9862 25.585 19.7226 25.5428 19.5054 25.6816C19.4832 25.6981 19.4609 25.7146 19.4386 25.7305C19.1968 25.7562 18.9928 25.8888 18.7744 25.9799C18.7281 25.9946 18.6661 25.9775 18.6468 26.0459C18.5193 26.1327 18.3502 26.1321 18.2347 26.2458C18.1962 26.2311 18.1817 26.2556 18.1721 26.2868C18.1318 26.3137 18.0921 26.3406 18.0518 26.3669C18.0108 26.3534 17.9982 26.3785 17.991 26.4121C17.8941 26.4005 17.8544 26.4708 17.8135 26.5392C17.7642 26.5405 17.7094 26.5301 17.6883 26.5961C17.5698 26.6786 17.4513 26.7611 17.3327 26.8437C17.3117 26.862 17.2912 26.8797 17.2702 26.8981C17.2503 26.9188 17.2305 26.9396 17.2106 26.9604C17.1751 26.983 17.1119 26.961 17.1053 27.0295L17.0957 27.035C17.0578 27.0283 17.0397 27.0497 17.0307 27.0833C16.9501 27.1255 16.8851 27.1829 16.8526 27.2716C16.7828 27.2813 16.7389 27.3162 16.7401 27.3932C16.7172 27.4158 16.695 27.4384 16.6721 27.4604C16.633 27.4733 16.5734 27.4446 16.5638 27.5161C16.4982 27.5356 16.4567 27.5803 16.4326 27.6438C16.3616 27.6524 16.3815 27.7135 16.3694 27.7563C16.346 27.7746 16.3219 27.793 16.2984 27.8113L16.2997 27.8046C16.2046 27.8364 16.145 27.8981 16.1384 28.0039C15.9128 28.1323 15.8129 28.3737 15.6504 28.5595C15.5909 28.5742 15.6005 28.6305 15.5855 28.672H15.5861C15.5662 28.6922 15.5457 28.7136 15.5259 28.7344C15.4868 28.7979 15.4483 28.8615 15.4092 28.9251C15.3905 28.944 15.3719 28.9624 15.3538 28.9813L15.349 28.9838C15.3135 28.985 15.293 29.0003 15.2991 29.0394C15.2954 29.0614 15.2918 29.0828 15.2882 29.1048C15.2702 29.125 15.2515 29.1445 15.2335 29.1647L15.2287 29.1666C15.192 29.1666 15.1727 29.1824 15.1799 29.2222C15.1083 29.3561 14.9687 29.4429 14.9284 29.5987C14.8959 29.5993 14.8737 29.6097 14.8851 29.6495C14.7389 29.9362 14.5927 30.2222 14.4465 30.5089C14.4122 30.5126 14.3911 30.5285 14.3965 30.5676C14.2539 30.9478 13.9886 31.2712 13.9068 31.6789C13.8857 31.6863 13.8791 31.6997 13.8881 31.7187L13.8442 31.7908C13.7545 31.8293 13.7858 31.9076 13.7858 31.9748C13.766 31.995 13.7467 32.0152 13.7268 32.0359C13.6853 32.0359 13.6438 32.0359 13.6023 32.0359C13.5421 31.976 13.482 31.9161 13.4218 31.8562C13.3995 31.8354 13.3767 31.8146 13.3544 31.7939L13.1799 31.6129C13.1817 31.5298 13.142 31.487 13.0596 31.487L13.0614 31.4882C13.0403 31.4674 13.0193 31.4467 12.9982 31.4259C12.858 31.2871 12.7178 31.1483 12.577 31.009C12.5626 30.9533 12.5199 30.9381 12.4699 30.9326C12.3652 30.8451 12.2605 30.7577 12.1565 30.6703C12.1402 30.6563 12.1246 30.6422 12.1083 30.6281C12.0439 30.5805 11.9796 30.5334 11.9152 30.4857C11.8971 30.4723 11.8791 30.4588 11.861 30.4454H11.8592C11.8532 30.3555 11.8027 30.3219 11.719 30.3311C11.645 30.2864 11.571 30.2412 11.497 30.1966C11.4753 30.1782 11.4537 30.1605 11.432 30.1422C11.293 30.0572 11.154 29.9722 11.0157 29.8879C10.9928 29.8714 10.9693 29.8549 10.9465 29.8384C10.8893 29.8127 10.8321 29.7876 10.775 29.7619C10.7563 29.7454 10.7383 29.7283 10.7196 29.7118C10.698 29.6923 10.6763 29.6733 10.6552 29.6537C10.6306 29.6024 10.5861 29.5914 10.5355 29.5914H10.5343C10.5084 29.5724 10.4826 29.5541 10.4561 29.5364C10.3821 29.5107 10.3075 29.4844 10.2335 29.4587C10.2124 29.4422 10.192 29.4257 10.1709 29.4098L10.1721 29.4117C10.1492 29.3579 10.1035 29.3475 10.053 29.3475C10.0253 29.2925 9.97655 29.2864 9.9236 29.2894C9.90194 29.2919 9.88449 29.2845 9.87065 29.268C9.84959 29.254 9.82913 29.2399 9.80808 29.2258C9.70158 29.2332 9.59869 29.2246 9.51265 29.15C9.49941 29.1244 9.5307 29.0394 9.45128 29.1036C9.43082 29.0999 9.41096 29.0963 9.39051 29.0926C9.36704 29.0767 9.34418 29.0608 9.32071 29.0449C9.28401 29.0241 9.2467 29.0027 9.21 28.9819C9.19556 28.9477 9.17691 28.9398 9.15164 28.9722L8.66969 28.8462C8.65705 28.7729 8.64081 28.7063 8.55116 28.7845C8.5301 28.7851 8.50904 28.7857 8.48798 28.7869C8.46451 28.771 8.44045 28.7558 8.41698 28.7399C8.38088 28.7344 8.34478 28.7295 8.30868 28.724C8.29003 28.6335 8.25994 28.5834 8.18353 28.6849C8.14502 28.6751 8.10651 28.6653 8.068 28.6555C8.05116 28.5803 8.02829 28.521 7.94827 28.6072C7.92781 28.6054 7.90735 28.6042 7.8875 28.6023C7.88148 28.5632 7.87667 28.5161 7.82733 28.5161C7.77799 28.5161 7.77318 28.5638 7.76716 28.6029C7.50663 28.562 7.2461 28.521 6.98497 28.4795C6.95188 28.3474 6.89051 28.334 6.80206 28.4342L6.62396 28.4122C6.494 28.2362 6.34779 28.2814 6.19797 28.3792C5.69797 28.3731 5.19797 28.367 4.69797 28.3603C4.58064 28.2881 4.46812 28.2392 4.39833 28.4189L4.33816 28.4147C4.32853 28.3908 4.31951 28.367 4.30988 28.3431C4.29905 28.3658 4.28822 28.3884 4.27739 28.4116C4.17811 28.4189 4.07823 28.4263 3.97895 28.433C3.8887 28.3328 3.82793 28.3486 3.79604 28.4801C3.47173 28.4446 3.16668 28.5663 2.8508 28.6017C2.84839 28.381 2.84658 28.1598 2.84418 27.9391C3.03672 27.8456 2.95729 27.7092 2.90013 27.576C2.90134 27.4525 2.90314 27.329 2.90435 27.2055C3.0313 27.1738 3.04695 27.112 2.95188 27.0215C2.95609 26.8791 2.9609 26.7367 2.96512 26.5943C3.09087 26.5631 3.10651 26.5013 3.01325 26.4109C3.00001 26.0942 3.12095 25.799 3.15344 25.4897C3.16608 25.4664 3.17811 25.4432 3.19075 25.42C3.19616 25.261 3.20098 25.1027 3.20639 24.9438C3.27258 24.9309 3.34177 24.9199 3.26957 24.8289C3.27859 24.7647 3.28762 24.7011 3.29725 24.6369C3.36885 24.6094 3.39231 24.5727 3.31891 24.5177C3.33756 24.3942 3.35621 24.2714 3.37486 24.1479C3.3881 24.1295 3.40134 24.1112 3.41457 24.0923C3.4224 24.0323 3.42962 23.9724 3.43744 23.9125C3.44887 23.8911 3.4603 23.8704 3.47173 23.849C3.47534 23.8056 3.47895 23.7622 3.48256 23.7188C3.49219 23.7004 3.49339 23.6809 3.48617 23.6613C3.494 23.6197 3.50122 23.5788 3.50904 23.5372C3.57703 23.5238 3.64321 23.5091 3.568 23.4211C3.57101 23.377 3.57402 23.3324 3.57703 23.2884C3.59027 23.2707 3.6035 23.2523 3.61674 23.2346C3.73287 22.8452 3.79664 22.4399 3.95007 22.0616C3.96391 22.0481 3.97294 22.0322 3.97775 22.0133C4.02288 21.8684 4.068 21.7229 4.11313 21.578C4.12697 21.5548 4.14021 21.5316 4.15404 21.5077C4.14622 21.3763 4.19676 21.2608 4.24851 21.1458C4.26295 21.133 4.27318 21.1171 4.27859 21.0988C4.34237 20.872 4.40555 20.6458 4.46933 20.419C4.48557 20.4001 4.50242 20.3817 4.51867 20.3628C4.6041 20.1562 4.69015 19.9502 4.77559 19.7436C4.79003 19.7044 4.80447 19.6653 4.81891 19.6262C4.82974 19.603 4.84057 19.5791 4.8514 19.5559C4.86463 19.5431 4.87426 19.5284 4.88028 19.5107C5.04093 19.1317 5.15826 18.7245 5.37185 18.3792C5.73768 17.7893 5.78341 17.225 5.42059 16.6315C5.40435 16.6119 5.3875 16.5924 5.37125 16.5728C5.35019 16.2867 5.19075 16.0459 5.11975 15.7763C5.1035 15.7567 5.08726 15.7372 5.07041 15.7176C5.07041 15.6956 5.07041 15.673 5.07041 15.651C5.15164 15.5385 5.06139 15.4786 4.99941 15.4101C4.98437 15.3906 4.96993 15.3716 4.95489 15.3521C4.94526 15.2824 4.94707 15.2078 4.9242 15.143C4.61734 14.2933 4.43684 13.4094 4.21782 12.5353C4.20459 12.5169 4.19135 12.4986 4.17811 12.4802C4.17691 12.4148 4.17571 12.3494 4.1745 12.284C4.2437 12.1923 4.1739 12.1825 4.10952 12.1703C4.11072 12.1483 4.11193 12.1263 4.11373 12.1043C4.16187 12.0652 4.16066 12.0279 4.11133 11.9906C4.08064 11.8451 4.04995 11.7002 4.01927 11.5547C4.00603 11.534 3.99219 11.5126 3.97895 11.4918C3.97595 11.4533 3.97234 11.4142 3.96933 11.3756C3.95188 11.3445 3.93443 11.3133 3.91758 11.2821L3.91397 11.2515C3.91518 11.1904 3.91638 11.1299 3.91758 11.0688C4.01145 10.9759 3.99219 10.9153 3.86704 10.8854C3.82432 10.661 3.7816 10.4361 3.73948 10.2117C3.71602 9.98924 3.69195 9.76734 3.66849 9.54483C3.76596 9.46231 3.76415 9.39812 3.63479 9.35717L3.60892 9.11632C3.70639 9.03746 3.65525 9.00812 3.56861 8.9904C3.52769 8.6438 3.48678 8.29781 3.44526 7.95121C3.61915 7.8748 3.61794 7.79349 3.45248 7.70669C3.44346 7.62661 3.43443 7.54592 3.4254 7.46584C3.43323 7.44628 3.43323 7.42611 3.42661 7.40594C3.52288 7.30446 3.54755 7.2146 3.3881 7.15348L3.36704 7.15959C3.37246 7.03611 3.37847 6.91263 3.38389 6.78915C3.44225 6.7378 3.43443 6.69929 3.36163 6.673C3.32914 6.66139 3.31469 6.64183 3.33275 6.60698C3.52348 6.50918 3.34117 6.40648 3.33636 6.30623C3.33455 6.16075 3.33335 6.01465 3.33154 5.86916C3.40314 5.48405 3.41457 5.09894 3.32553 4.71444C3.32071 4.50966 3.3153 4.30488 3.31048 4.10009C3.32974 3.85619 3.34839 3.61229 3.36764 3.36838C3.37065 3.32743 3.37366 3.28647 3.37667 3.24551C3.4603 2.77971 3.54394 2.31391 3.62757 1.84872L3.62276 1.8475C3.6366 1.82488 3.65104 1.80226 3.66488 1.78026C3.74309 1.55347 3.79725 1.31751 3.91818 1.10723C4.00062 0.971525 4.08365 0.835819 4.16608 0.700113C4.3875 0.362071 4.71241 0.330284 5.065 0.376742C5.13299 0.459266 5.22504 0.423811 5.30928 0.429924C5.43082 0.427479 5.55356 0.419532 5.66548 0.483106C5.90555 0.564407 6.14562 0.64632 6.3863 0.727621C6.90374 0.962356 7.40134 1.23621 7.89352 1.52107C8.02107 1.61704 8.1378 1.73013 8.29183 1.78454C8.37787 1.89396 8.48617 1.97159 8.61493 2.02111C8.77438 2.16476 8.93383 2.30841 9.09388 2.45145C9.09989 2.53703 9.14682 2.57249 9.22865 2.56515C9.52408 2.81517 9.81951 3.06457 10.1149 3.31459C10.1354 3.33171 10.1565 3.34882 10.1769 3.36594C10.2587 3.45396 10.34 3.54199 10.4218 3.63001C10.4362 3.64407 10.4507 3.65813 10.4651 3.67158C10.6095 3.79323 10.7533 3.91426 10.8977 4.03591C10.9236 4.09154 10.9537 4.1435 11.0169 4.16306C11.1197 4.26636 11.2226 4.36967 11.3255 4.47359C11.3532 4.51333 11.3803 4.55306 11.408 4.59279C11.3983 4.62458 11.4134 4.6313 11.4404 4.62519C11.4441 4.63619 11.4519 4.64231 11.4627 4.64353C11.4645 4.71077 11.5102 4.74011 11.5626 4.76395L11.5674 4.76823C11.5915 4.82019 11.6191 4.86787 11.6853 4.86971C11.7118 4.8966 11.7377 4.92289 11.7642 4.94978C11.7678 5.01397 11.8027 5.0482 11.864 5.05676L11.8809 5.07816C11.8773 5.10872 11.8905 5.12156 11.9206 5.11667C11.9242 5.12767 11.932 5.135 11.9429 5.13806C11.9374 5.16679 11.9471 5.18085 11.9771 5.17535C12.2846 5.48955 12.5921 5.80436 12.8995 6.11857C12.9146 6.13385 12.9296 6.14852 12.9447 6.1638L12.9561 6.17542C12.9723 6.19559 12.988 6.21576 13.0042 6.23532C13.5379 6.82521 14.0734 7.41266 14.6023 8.00744C14.6907 8.10708 14.7666 8.1187 14.8863 8.07652C15.5764 7.83139 16.2792 7.63273 16.9832 7.431C17.5951 7.25556 18.2184 7.16876 18.8352 7.04222C19.6041 6.88451 20.3971 6.93341 21.1781 6.868C22.1023 6.79037 23.0331 6.85456 23.9591 6.93464C23.997 6.94625 24.0343 6.95848 24.0722 6.97009C24.2449 6.94075 24.4068 7.01838 24.5734 7.02755C25.4784 7.07707 26.3538 7.29285 27.2305 7.50374C27.8291 7.64801 28.42 7.81917 28.9976 8.03679C29.2034 8.11442 29.3803 8.13948 29.5409 7.91942C30.4284 6.70296 31.4122 5.56902 32.4362 4.47054C32.4741 4.43386 32.5126 4.39718 32.5506 4.3605C32.8538 4.0732 33.1571 3.78589 33.4609 3.49859C33.4832 3.47475 33.5048 3.45152 33.5271 3.42768C33.5475 3.42707 33.5686 3.42584 33.5891 3.42523C33.6059 3.41912 33.6197 3.40812 33.6294 3.39345C33.7274 3.29381 33.8099 3.17583 33.9447 3.1202L33.9928 3.0823C34.0897 2.94965 34.2708 2.88608 34.3015 2.69841L34.3303 2.69291L34.3592 2.69352C34.3682 2.7192 34.3779 2.74548 34.3869 2.77116C34.3977 2.73631 34.4086 2.70147 34.42 2.66663C34.6017 2.53581 34.7834 2.40561 34.9651 2.27479C35.0367 2.25278 35.1029 2.22161 35.1438 2.15253C35.1799 2.12747 35.216 2.10241 35.2521 2.07734C35.3658 2.01499 35.4892 1.9667 35.5716 1.85667C35.6276 1.82672 35.6835 1.79676 35.7401 1.76681C36.0217 1.60604 36.3033 1.44527 36.5848 1.2845C36.7431 1.26189 36.8664 1.16164 37.0024 1.09073C37.065 1.07422 37.127 1.05772 37.1895 1.04121C37.2082 1.0296 37.2268 1.01737 37.2455 1.00576C37.2473 0.995365 37.2479 0.984973 37.2461 0.974581C37.4856 0.889612 37.725 0.805255 37.9645 0.720286V0.72212ZM31.9501 16.2647C31.9278 16.2445 31.9049 16.2238 31.8827 16.2036C31.8255 16.1602 31.7678 16.1174 31.7106 16.074C31.6847 16.0538 31.6595 16.0337 31.6336 16.0129C31.4591 15.9297 31.2846 15.8466 31.1095 15.7628C31.0157 15.5899 30.9567 15.5746 30.8688 15.7017C30.5307 15.6333 30.1889 15.6492 29.8478 15.6534C29.7648 15.5556 29.7413 15.6223 29.7226 15.7005L29.7281 15.7243C29.6787 15.7158 29.6366 15.728 29.6077 15.7726C29.4759 15.8362 29.3442 15.8992 29.2118 15.9627L29.1276 16.0245L29.1318 16.022C29.0554 16.0159 29.0102 16.0483 29.0042 16.129C28.926 16.1944 28.8472 16.2592 28.769 16.3246C28.6901 16.3234 28.6468 16.3607 28.6426 16.442L28.639 16.4438C28.6204 16.4597 28.6017 16.475 28.583 16.4909L28.5686 16.5056C28.553 16.5227 28.5379 16.5398 28.5223 16.5569C28.5042 16.5814 28.4856 16.6052 28.4675 16.6297C28.3785 16.6315 28.3418 16.6798 28.349 16.7672C28.2726 16.9255 28.1396 17.0527 28.0981 17.2306C28.0867 17.2526 28.0752 17.2746 28.0638 17.2966C28.056 17.3167 28.0481 17.3375 28.0403 17.3577C28.0066 17.3656 27.9838 17.3815 27.9916 17.4213L27.9086 17.7312C27.837 17.8296 27.8406 17.9293 27.9043 18.0301C27.9043 18.0729 27.9049 18.1157 27.9056 18.1585C27.8995 18.1646 27.8881 18.1725 27.8887 18.1762C27.8929 18.1903 27.9013 18.2031 27.9086 18.2159C27.9164 18.2575 27.9248 18.2991 27.9326 18.3413C27.9254 18.3798 27.9465 18.3975 27.9796 18.4067C28.0343 18.686 28.2178 18.8474 28.4639 18.9513C28.4681 18.9862 28.4832 19.0076 28.5217 19.0015C28.6029 19.0296 28.6841 19.0577 28.7648 19.0852C28.7828 19.1139 28.8021 19.1152 28.8219 19.087C29.0235 19.1188 29.225 19.1512 29.4266 19.183L29.4549 19.1885L29.4832 19.1818C29.5433 19.1885 29.6035 19.1946 29.6637 19.2013C29.7088 19.2875 29.7792 19.2527 29.8442 19.2411C29.9037 19.2374 29.9639 19.2337 30.0235 19.2301C30.4266 19.2594 30.8291 19.2557 31.2323 19.2319C31.2708 19.2344 31.3099 19.2374 31.3484 19.2399C31.6817 19.1891 32.0385 19.2166 32.3087 18.9489C32.3291 18.9281 32.3502 18.9073 32.3707 18.8865C32.4543 18.7245 32.5373 18.5619 32.621 18.3999L32.6697 18.3284C32.6739 18.0876 32.6787 17.8473 32.6829 17.6065C32.7419 17.5973 32.7924 17.5778 32.7852 17.5026C32.7792 17.4433 32.7335 17.4323 32.6865 17.4231C32.6005 17.2244 32.5145 17.0252 32.4278 16.8265C32.411 16.8014 32.3941 16.7764 32.3773 16.7519C32.3153 16.6706 32.2527 16.5893 32.1907 16.508C32.1763 16.4884 32.1619 16.4689 32.1474 16.4493L32.0668 16.3595C32.0506 16.3472 32.0343 16.335 32.0181 16.3228L32.0133 16.321C31.9922 16.302 31.9711 16.2837 31.9501 16.2647ZM15.5271 18.7563C15.5409 18.741 15.5542 18.7264 15.568 18.7111L15.6029 18.6469C15.6835 18.6396 15.7118 18.5901 15.7064 18.5136C15.7148 18.4764 15.7226 18.4397 15.7311 18.4024C15.7678 18.3957 15.8087 18.3871 15.8081 18.3406C15.8075 18.2942 15.766 18.2862 15.7293 18.2801C15.6751 18.1835 15.796 18.1243 15.7798 18.0356C15.8267 18.0271 15.8743 18.0179 15.8815 17.958C15.8905 17.8816 15.84 17.862 15.7798 17.8522C15.7738 17.7923 15.7684 17.7324 15.7623 17.6725C15.861 17.5906 15.8051 17.5637 15.7196 17.5466L15.6601 17.4243C15.8171 17.3424 15.7064 17.2972 15.6366 17.2458L15.6402 17.2544C15.6077 17.1022 15.6336 16.9139 15.4176 16.8711C15.3448 16.8516 15.3129 16.7947 15.2912 16.7281C15.2798 16.7122 15.2648 16.7 15.2467 16.692C15.1601 16.5918 15.0728 16.4921 14.9862 16.3919C14.9922 16.2769 14.9152 16.2604 14.8285 16.2562C14.8015 16.2445 14.7684 16.2403 14.7485 16.2213C14.0018 15.5018 13.1643 15.5 12.2756 15.8931C12.1829 15.9071 12.0524 15.8533 12.0463 16.0239L12.0481 16.0214C12.0265 16.0361 12.0048 16.0508 11.9832 16.0648C11.4278 16.4591 11.0806 16.9921 10.9495 17.6688C10.8779 17.7495 10.8773 17.8296 10.9495 17.9097C10.9537 17.9299 10.9579 17.9506 10.9615 17.9708C10.9519 17.983 10.9423 17.9953 10.9326 18.0075C10.9543 18.0161 10.9765 18.0252 10.9982 18.0338L11.0036 18.1585C10.9513 18.2025 10.9561 18.2416 11.0126 18.2771C11.2551 18.9697 11.5734 19.2099 12.2834 19.238C12.3418 19.2362 12.4001 19.2337 12.4585 19.2319H13.6083C13.6667 19.2337 13.7244 19.2356 13.7828 19.2374C14.145 19.1873 14.5078 19.1372 14.87 19.087C14.9013 19.1164 14.917 19.0993 14.926 19.0662C15.0674 19.0112 15.2088 18.9562 15.3508 18.9006C15.3803 18.9318 15.3965 18.9177 15.4068 18.8835L15.4037 18.8865C15.426 18.8682 15.4483 18.8505 15.4705 18.8321L15.4669 18.8089L15.5175 18.7643L15.5265 18.7545L15.5271 18.7563ZM10.7786 23.3514C10.7997 23.3722 10.8207 23.3923 10.8418 23.4131C11.3207 23.723 11.7894 24.0531 12.3418 24.2231C12.3544 24.3417 12.4416 24.33 12.5223 24.3313C12.7636 24.4199 13.0054 24.5079 13.2467 24.5966C13.2666 24.61 13.2864 24.6229 13.3063 24.6363C13.5867 24.7219 13.867 24.8081 14.1474 24.8937C14.1643 24.9218 14.1829 24.9254 14.204 24.8985C14.5259 24.978 14.8484 25.0569 15.1703 25.1363C15.2268 25.2011 15.2858 25.2017 15.346 25.1418L15.5313 25.2005C15.568 25.2519 15.6065 25.2537 15.6468 25.2048C15.6889 25.2066 15.7311 25.2079 15.7732 25.2097C15.793 25.2225 15.8123 25.2348 15.8321 25.2476C15.9525 25.2519 16.0728 25.2561 16.1932 25.2604C16.2335 25.2763 16.2738 25.2916 16.3141 25.3075C16.7341 25.2647 17.1727 25.4212 17.5758 25.1889C17.6679 25.28 17.6829 25.206 17.6968 25.1302L17.7648 25.0666C17.8225 25.0563 17.8731 25.0373 17.8676 24.9633C17.8634 24.9047 17.8189 24.8912 17.7726 24.8814C17.7696 24.8399 17.7666 24.7977 17.7636 24.7561C17.8454 24.6705 17.7822 24.6516 17.71 24.6369C17.7052 24.6155 17.701 24.5941 17.6962 24.5727C17.6944 24.5232 17.6835 24.4792 17.6348 24.4547C17.6426 24.3508 17.6246 24.2591 17.5211 24.2084C17.2756 23.9211 17.068 23.5953 16.7335 23.3978C16.7293 23.3312 16.6944 23.2964 16.6294 23.2921C16.6059 23.2267 16.5391 23.2371 16.4928 23.2126C16.485 23.1344 16.4362 23.1087 16.3658 23.1117C16.3448 23.1117 16.3273 23.1038 16.3123 23.0891C16.3057 23.017 16.2611 22.9889 16.1956 22.9852L16.1932 22.9834C16.1883 22.9039 16.1468 22.8654 16.0692 22.8654C16.0229 22.8599 15.9663 22.8764 15.9507 22.8067C15.923 22.7596 15.914 22.6716 15.8291 22.7486C15.8099 22.7413 15.7906 22.734 15.7714 22.7272C15.766 22.6539 15.7226 22.6221 15.654 22.6191L15.6522 22.6154C15.6191 22.5781 15.6083 22.4827 15.5283 22.5659C15.5084 22.5457 15.4886 22.5249 15.4687 22.5047C15.4447 22.4503 15.3983 22.4393 15.346 22.4393C15.3255 22.4393 15.3063 22.4351 15.2888 22.4241C15.2696 22.4082 15.2509 22.3923 15.2317 22.3764C15.1107 22.3091 14.9904 22.2419 14.8694 22.1746C14.8634 22.1037 14.8219 22.0732 14.7557 22.0689L14.2064 21.7565C14.1847 21.74 14.1631 21.7229 14.1408 21.7064C13.5614 21.4405 13.0289 21.0823 12.4368 20.8371C11.926 20.6256 11.4068 20.4588 10.8658 20.364C10.6276 20.3224 10.4633 20.3744 10.343 20.6623C10.1456 21.1355 10.2413 21.6135 10.1889 22.0866C10.1312 22.6099 10.3027 23.0066 10.719 23.3049C10.7389 23.3214 10.7593 23.3373 10.7792 23.3538H10.7786V23.3514ZM33.9778 21.0603C33.9988 20.9777 33.9796 20.9197 33.8869 20.9068C33.8508 20.6813 33.8574 20.4313 33.5758 20.3463C33.4958 20.1855 33.4152 20.1855 33.3352 20.3463C33.0993 20.3689 32.8574 20.3328 32.6288 20.4239C32.6047 20.4349 32.5806 20.4459 32.5566 20.4575C31.6198 20.7797 30.7545 21.2504 29.9092 21.7639C29.8117 21.7718 29.7256 21.8036 29.6667 21.8886C29.6065 21.9283 29.5463 21.968 29.4862 22.0078L29.426 22.0573C29.296 22.1422 29.1661 22.2272 29.0355 22.3122C28.9609 22.3104 28.8929 22.3189 28.8785 22.4137C28.5788 22.6044 28.2798 22.7945 27.9802 22.9852C27.8977 22.984 27.8394 23.0231 27.8021 23.0959C27.7293 23.1258 27.7028 23.2034 27.639 23.2511C27.1432 23.6197 26.7527 24.0776 26.5307 24.6718C26.4134 24.9853 26.5006 25.1645 26.8069 25.25C27.0018 25.3044 27.1962 25.3002 27.3929 25.3106C27.9404 25.3399 28.4591 25.1143 29.0036 25.1253C29.0668 25.1235 29.1342 25.1369 29.1817 25.0764C29.7443 24.9138 30.3237 24.8117 30.8701 24.5911C30.8863 24.6167 30.9049 24.6198 30.9254 24.596C30.9459 24.5886 30.9663 24.5819 30.9868 24.5746C31.0072 24.5581 31.0271 24.5416 31.0475 24.525C31.2497 24.4425 31.4513 24.36 31.6534 24.2775C31.7377 24.3606 31.7563 24.2964 31.7708 24.2231C31.849 24.1968 31.9266 24.1705 32.0048 24.1448C32.056 24.146 32.1029 24.1375 32.1312 24.0868C32.192 24.047 32.2521 24.0067 32.3129 23.9669C32.3977 24.0556 32.4176 23.9914 32.432 23.9144C32.4495 23.9046 32.4681 23.9003 32.488 23.9009C32.509 23.885 32.5301 23.8691 32.5506 23.8532C32.6294 23.8074 32.7076 23.7622 32.7864 23.7163C32.855 23.7163 32.9296 23.7316 32.9717 23.6521C32.9958 23.5953 33.0325 23.5525 33.0927 23.5335C33.1787 23.6124 33.1817 23.5128 33.2136 23.4749C33.2293 23.4107 33.2726 23.3746 33.3303 23.352C33.4146 23.3538 33.4747 23.3147 33.5151 23.2413C33.5999 23.1069 33.6907 22.984 33.8418 22.9106C33.9272 22.8691 33.9964 22.7927 33.9904 22.6722C33.9796 22.4681 33.9796 22.2627 33.9753 22.0579C33.9862 21.9179 33.9964 21.7779 34.0072 21.6379C34.077 21.5536 34.0818 21.4723 33.9946 21.3965C33.9765 21.2907 33.9585 21.185 33.9398 21.0798C33.9537 21.0768 33.9657 21.0707 33.9765 21.0615L33.9778 21.0603ZM38.8081 4.83303C38.7515 4.355 38.5427 3.92282 38.4031 3.46986C38.3339 3.24551 38.1643 3.19539 37.9447 3.28403C37.4735 3.47414 37.0277 3.71559 36.5716 3.93627C36.0536 4.18751 35.58 4.50477 35.1203 4.83731C34.3743 5.37769 33.6679 5.97186 32.9844 6.59598C32.2997 7.22133 31.6354 7.86624 30.9862 8.52887C30.8725 8.64502 30.855 8.72082 31.0199 8.79356C31.0824 8.82107 31.1306 8.87975 31.1901 8.91521C31.7858 9.26914 32.2774 9.76734 32.852 10.1494C33.4759 10.7595 34.1408 11.3231 34.713 11.9918C35.2106 12.5732 35.6974 13.1606 36.1426 13.7835C36.42 14.1711 36.6895 14.5653 36.9681 14.9651C37.0066 14.9229 37.0367 14.9046 37.0451 14.8795C37.293 14.1203 37.5632 13.3678 37.7786 12.5994C38.0668 11.57 38.3532 10.5388 38.5409 9.48187C38.7142 8.50564 38.8676 7.53003 38.8707 6.53424C38.8725 5.96574 38.8622 5.39847 38.8069 4.83303H38.8081ZM10.7792 10.0895C10.8171 10.0779 10.864 10.0773 10.8917 10.0534C11.4266 9.58334 12.012 9.18356 12.5921 8.77644C12.784 8.64196 12.6204 8.57411 12.5512 8.50137C11.5006 7.39799 10.4074 6.34169 9.20519 5.40825C8.11193 4.55978 6.97895 3.77611 5.66728 3.2987C5.41337 3.20639 5.27559 3.24918 5.1745 3.50103C5.00062 3.93444 4.89352 4.3874 4.76415 4.83364C4.43563 8.37788 5.50122 11.6605 6.57161 15.0397C6.83636 14.6387 7.02829 14.3092 7.25753 14.0091C7.7106 13.418 8.15104 12.8183 8.64502 12.2583C9.19255 11.6379 9.77077 11.051 10.3731 10.488C10.512 10.3578 10.6685 10.2484 10.7792 10.0895Z" fill="#FFA409"/>
<path d="M43.8724 21.4558C43.8454 21.8495 43.9115 22.2346 43.9783 22.6191C43.9831 22.7817 43.9886 22.9449 43.9934 23.1075C43.9958 23.1576 43.9982 23.2072 44.0006 23.2567C44.0006 23.7274 44.0006 24.1981 44.0006 24.6694C43.9988 24.739 43.9964 24.8087 43.9946 24.8784C43.9747 25.1437 43.9549 25.4096 43.935 25.6749C43.929 25.8779 43.923 26.0808 43.917 26.2838C43.7984 26.5173 43.9019 26.7826 43.8165 27.021C43.775 27.2447 43.734 27.4678 43.6925 27.6916C43.6805 27.9807 43.559 28.2539 43.5704 28.5468C43.491 28.8524 43.4115 29.1587 43.3321 29.4643C43.3093 29.6251 43.2334 29.7779 43.2593 29.9466C43.0975 30.1648 43.0704 30.4283 43.0192 30.6838C42.9248 30.9919 42.7623 31.2774 42.7184 31.6026H42.7196C42.6209 31.6393 42.6745 31.7212 42.6673 31.7854C42.5469 32.0464 42.4115 32.3019 42.3405 32.5837C42.3273 32.6045 42.3141 32.6253 42.3008 32.6467C42.2431 32.7885 42.1847 32.9297 42.1269 33.0715C42.0024 33.3558 41.8772 33.64 41.7527 33.9243C41.6931 33.9444 41.7052 34.0001 41.6955 34.0447C41.5541 34.2281 41.4525 34.4322 41.3821 34.6529C41.2665 34.8583 41.1504 35.0637 41.0349 35.2691C40.8345 35.5625 40.6047 35.8376 40.4934 36.1854C40.1221 36.653 39.781 37.1433 39.4687 37.6537C39.4494 37.6733 39.4302 37.6928 39.4103 37.7124C39.1474 37.941 38.9892 38.2607 38.7449 38.5059C38.4958 38.7106 38.3345 38.99 38.1384 39.24C38.0824 39.2889 38.0265 39.3384 37.9705 39.3873C37.7214 39.5725 37.5084 39.7951 37.3201 40.0426C37.2786 40.0494 37.2557 40.0744 37.2521 40.1172C37.1101 40.2566 36.9675 40.3966 36.8255 40.5359C36.7732 40.5268 36.7617 40.5751 36.7352 40.602V40.6001C36.6649 40.6649 36.5945 40.7303 36.5247 40.7951C36.4813 40.7731 36.4735 40.8012 36.4699 40.8355L36.4675 40.8379C36.2094 41.025 36.0186 41.2939 35.7425 41.4596C35.663 41.4504 35.6889 41.5158 35.6769 41.555C35.4073 41.698 35.1817 41.9003 34.9573 42.1045C34.861 42.0972 34.8207 42.1675 34.7792 42.2359C34.5367 42.3447 34.3135 42.4853 34.1143 42.6638C33.9344 42.7849 33.7545 42.9065 33.5746 43.0275C33.5355 43.0526 33.4958 43.0783 33.4567 43.1033C33.2166 43.2476 32.9771 43.3913 32.7371 43.5355C32.5788 43.5844 32.4398 43.6694 32.3141 43.7764C32.1949 43.8381 32.0752 43.8999 31.9561 43.9616C31.7136 44.0166 31.5186 44.1786 31.2912 44.2685C31.0692 44.3229 30.8905 44.4665 30.6925 44.5704C30.6161 44.546 30.5716 44.6199 30.5078 44.6334C30.4681 44.623 30.4513 44.6475 30.4404 44.6799L30.4452 44.6744C30.1685 44.7361 29.9158 44.8584 29.6703 44.9965C29.367 45.0375 29.0969 45.1793 28.8165 45.2899C28.7377 45.307 28.6408 45.2502 28.5818 45.3486C28.4519 45.3602 28.3279 45.3889 28.2226 45.4733C28.0836 45.4959 27.9446 45.5179 27.805 45.5405L27.7449 45.5821C27.6444 45.6133 27.5445 45.6445 27.444 45.6763C27.1829 45.7362 26.9218 45.7955 26.66 45.8554C26.6191 45.867 26.5788 45.8792 26.5379 45.8908C26.5205 45.8633 26.5012 45.8615 26.4813 45.8884C26.0313 46.0406 25.5523 46.0375 25.0969 46.1616C24.8712 46.1127 24.66 46.2539 24.4356 46.2154C24.3351 46.1286 24.2461 46.1029 24.1937 46.2637C24.0355 46.3138 23.8586 46.2136 23.7082 46.3254C23.4489 46.3334 23.1895 46.3407 22.9296 46.3487C22.6895 46.353 22.4495 46.3572 22.2094 46.3609C21.9476 46.3597 21.6865 46.3578 21.4248 46.3566C21.1853 46.353 20.9452 46.3493 20.7058 46.3462C20.4422 46.3517 20.1883 46.238 19.9218 46.2839C19.8622 46.2765 19.802 46.2698 19.7425 46.2625C19.6895 46.1023 19.6011 46.128 19.5012 46.2142C19.4013 46.213 19.3014 46.2117 19.2016 46.2099C18.8845 46.0883 18.5415 46.1145 18.2166 46.0326C18.0668 45.9947 17.9109 45.9807 17.7575 45.9562C17.7419 45.8749 17.7184 45.8138 17.636 45.9085C17.3833 45.8969 17.1444 45.8279 16.9152 45.7227C16.6937 45.6848 16.4723 45.6475 16.2509 45.6096C16.0108 45.5302 15.7708 45.4507 15.5313 45.3712C15.5114 45.3639 15.4922 45.3645 15.4729 45.3724C15.4531 45.3706 15.4332 45.3682 15.4128 45.3663C15.3953 45.3559 15.3773 45.3517 15.3574 45.3547C15.1438 45.2477 14.9284 45.1469 14.6877 45.1218C14.4446 44.9751 14.1799 44.8871 13.9079 44.8168C13.7166 44.7123 13.5289 44.5973 13.3063 44.5735C13.2473 44.5472 13.1877 44.5209 13.1288 44.4946C12.9121 44.3253 12.6474 44.2593 12.4055 44.1444C12.2419 44.0282 12.0854 43.8962 11.8718 43.887C11.8147 43.8448 11.7569 43.802 11.6998 43.7599C11.4254 43.6352 11.1949 43.4261 10.9031 43.335C10.7828 43.2549 10.6624 43.1749 10.5427 43.0948C10.4019 43.0117 10.2617 42.9285 10.1209 42.8448C9.90373 42.6455 9.66185 42.4841 9.39831 42.3551C9.37845 42.3356 9.3586 42.3166 9.33814 42.2971C9.14079 42.1039 8.90794 41.9596 8.6799 41.808C8.62274 41.6766 8.4645 41.6693 8.38688 41.5629C8.24308 41.4413 8.09927 41.3196 7.95547 41.1986C7.77015 41.0904 7.66847 40.8789 7.46811 40.789C7.3947 40.7193 7.3219 40.6502 7.24849 40.5806C6.80264 40.1331 6.35619 39.6862 5.91034 39.2388C5.85379 39.1349 5.78038 39.0487 5.67328 38.9961C5.54151 38.8249 5.43742 38.6299 5.2503 38.5089C5.11612 38.3225 4.99939 38.122 4.8243 37.9685C4.80084 37.8726 4.72503 37.8249 4.65222 37.7748C4.5379 37.5168 4.34175 37.3187 4.17448 37.0987C4.13297 37.0345 4.09205 36.9709 4.05054 36.9067C3.89109 36.686 3.73104 36.4654 3.5716 36.2447C3.50722 36.161 3.49037 36.0424 3.38808 35.9861C3.41335 35.8082 3.22803 35.7318 3.19915 35.5796C3.19915 35.527 3.18953 35.48 3.13598 35.4555C3.11672 35.436 3.09747 35.4158 3.07882 35.3962C3.08062 35.3113 3.09025 35.222 2.97051 35.2092C2.86101 35.1053 2.88688 34.909 2.72563 34.8406C2.69975 34.7801 2.67448 34.7201 2.64861 34.6596C2.53128 34.3827 2.41034 34.1076 2.24247 33.8576C2.1805 33.6981 2.11793 33.5391 2.05595 33.3796C2.04031 33.3582 2.02466 33.3368 2.00902 33.316C2.00421 33.2775 1.99939 33.2384 1.99458 33.1999C1.97833 33.1766 1.96209 33.1534 1.94584 33.1302L1.93983 33.1241C1.92478 33.0868 1.90974 33.0495 1.8947 33.0128C1.73465 32.7921 1.70637 32.5103 1.56618 32.2799C1.49097 32.0733 1.45006 31.8526 1.32731 31.6655C1.358 31.506 1.1799 31.4064 1.21179 31.2468C1.19735 31.2224 1.18291 31.1985 1.16847 31.1741L1.14681 31.1814C1.14861 31.1411 1.15042 31.1013 1.15222 31.061C1.13778 31.039 1.12334 31.017 1.1089 30.995C1.08844 30.9308 1.1101 30.8501 1.0367 30.8067C1.06859 30.6257 0.889887 30.501 0.910946 30.3225C1.00541 30.2376 0.944039 30.215 0.863413 30.1991C0.856193 30.1783 0.848371 30.1575 0.841151 30.1367C0.757517 29.8739 0.746686 29.5878 0.604087 29.3433C0.619129 29.0016 0.455471 28.6941 0.424785 28.3597C0.406133 28.1561 0.345964 27.9569 0.304448 27.7558C0.203365 27.521 0.312872 27.2502 0.182908 27.0204C0.228636 26.7508 0.0968667 26.4953 0.119129 26.2275C0.100477 25.9824 0.0812229 25.7373 0.0625707 25.4922C-0.0168517 25.233 0.029478 24.9634 0.00180054 24.6999C0.00180054 24.4548 0.00180054 24.2097 0.00240222 23.9639C0.00240222 23.6589 0.00240222 23.3545 0.00180054 23.0494C0.0222578 22.8447 0.0427151 22.6405 0.0631724 22.4357C0.0667825 22.2951 0.0709943 22.1545 0.0746044 22.0139C0.103485 22.0017 0.129358 21.9876 0.117324 21.9479C0.119731 21.8666 0.122739 21.7847 0.125146 21.7034C0.0968667 21.4344 0.228034 21.1777 0.183509 20.9081C0.298431 20.6563 0.246686 20.3757 0.314677 20.1153C0.482547 19.7619 0.440429 19.3634 0.551139 18.9972C0.584833 18.8854 0.597468 18.7668 0.619731 18.6512C0.713594 18.4165 0.796024 18.1793 0.799033 17.922C0.908539 17.6646 1.01624 17.4067 1.04031 17.1224C1.12996 17.0173 1.1444 16.8858 1.16185 16.7556C1.23104 16.6175 1.31046 16.483 1.33092 16.3253C1.42178 16.0844 1.55415 15.8589 1.58543 15.5966L1.58182 15.6021C1.61432 15.5905 1.64079 15.5752 1.62815 15.5324C1.85559 15.0446 2.08243 14.5568 2.30986 14.069C2.57039 13.5598 2.83092 13.0512 3.09145 12.542L3.08604 12.5481C3.10649 12.5445 3.12635 12.5414 3.14681 12.5377C3.16426 12.5157 3.18231 12.4937 3.19975 12.4717C3.37304 12.0732 3.63718 11.7321 3.87545 11.3751C3.90854 11.3751 3.94163 11.3751 3.97472 11.3751C3.97773 11.4136 3.98134 11.4527 3.98435 11.4912C3.99759 11.512 4.01143 11.5334 4.02466 11.5542C4.05535 11.6997 4.08604 11.8445 4.11672 11.99C4.11732 12.0279 4.11853 12.0658 4.11913 12.1037C4.11793 12.1257 4.11672 12.1477 4.11492 12.1698C4.1077 12.2248 4.11492 12.2712 4.1805 12.2835C4.1817 12.3489 4.18291 12.4143 4.18411 12.4797C4.17208 12.517 4.19554 12.5274 4.22382 12.5347C4.44283 13.4082 4.62334 14.2928 4.9302 15.1424C4.95367 15.2072 4.95126 15.2818 4.96089 15.3515C4.95306 15.3888 4.97352 15.4035 5.00541 15.409C5.00962 15.4952 5.01383 15.5813 5.07641 15.6498C5.07641 15.6718 5.07641 15.6944 5.07641 15.7164C5.09265 15.736 5.1089 15.7556 5.12575 15.7751C5.19675 16.0447 5.35559 16.2862 5.37665 16.5716C5.3929 16.5912 5.40974 16.6108 5.42599 16.6303C5.78941 17.2239 5.74368 17.7881 5.37725 18.378C5.16305 18.7228 5.04632 19.1299 4.88567 19.5089C4.86341 19.5168 4.85379 19.5321 4.85679 19.5541C4.84596 19.5773 4.83513 19.6012 4.8243 19.6244C4.76594 19.647 4.76895 19.6923 4.78098 19.7418C4.69554 19.9484 4.6095 20.1544 4.52406 20.361C4.50782 20.38 4.49097 20.3983 4.47472 20.4172C4.41095 20.644 4.34777 20.8702 4.28399 21.097C4.27376 21.1129 4.26353 21.1288 4.25391 21.1447C4.20216 21.2602 4.15102 21.3751 4.15944 21.5072C4.1456 21.5304 4.13237 21.5536 4.11853 21.5769C4.0734 21.7217 4.02827 21.8672 3.98315 22.0121C3.97412 22.028 3.9645 22.0445 3.95547 22.0604C3.80204 22.4394 3.73826 22.8441 3.62214 23.2334C3.59386 23.2402 3.57039 23.2499 3.58243 23.2872C3.57942 23.3313 3.57641 23.3759 3.5734 23.4199C3.50722 23.4346 3.50782 23.4841 3.51504 23.5366C3.50722 23.5782 3.5 23.6192 3.49217 23.6607C3.48555 23.6662 3.47232 23.6723 3.47352 23.6766C3.47593 23.6907 3.48315 23.7047 3.48917 23.7182C3.48555 23.7616 3.48194 23.805 3.47833 23.8484C3.4669 23.8698 3.45547 23.8906 3.44404 23.912C3.43622 23.9719 3.429 24.0318 3.42117 24.0917C3.40794 24.11 3.3947 24.1284 3.38146 24.1473C3.36281 24.2708 3.34416 24.3937 3.32551 24.5171C3.26052 24.5459 3.27497 24.5899 3.30385 24.6363C3.29482 24.7005 3.2858 24.7641 3.27617 24.8283C3.21179 24.8424 3.20577 24.8888 3.21299 24.9432C3.20758 25.1021 3.20276 25.2605 3.19735 25.4194C3.18471 25.4426 3.17268 25.4659 3.16004 25.4885C3.12755 25.7978 3.00661 26.093 3.01985 26.4097C2.93983 26.4537 2.9663 26.5264 2.97172 26.5931C2.9675 26.7355 2.96269 26.8779 2.95848 27.0204C2.88026 27.065 2.90493 27.1371 2.91095 27.2044C2.90974 27.3278 2.90794 27.4513 2.90673 27.5742C2.7888 27.6793 2.85679 27.8144 2.85078 27.9373C2.85318 28.158 2.85499 28.3793 2.8574 28.6005C2.79843 29.2571 2.87785 29.8946 3.04873 30.5322C3.16546 30.9668 3.3598 31.3654 3.50421 31.7854C3.5024 31.8361 3.51083 31.8826 3.56197 31.9076L3.56498 31.9125C3.57761 31.9308 3.59085 31.9498 3.60349 31.9681C3.83273 32.4113 4.0728 32.8472 4.35679 33.2567C4.34657 33.2977 4.36702 33.3124 4.40373 33.313C4.42839 33.3551 4.45306 33.3967 4.47713 33.4389C4.48074 33.5086 4.53429 33.5349 4.58243 33.566C4.6077 33.6052 4.63297 33.6443 4.65764 33.6834C4.66245 33.7513 4.71179 33.7818 4.76173 33.8112C4.84837 33.9059 4.88206 34.0428 4.99819 34.1144C5.01925 34.1345 5.04031 34.1547 5.06197 34.1755H5.06257C5.07761 34.2177 5.06257 34.2764 5.12635 34.2898L5.12936 34.2941C5.145 34.3577 5.18832 34.3962 5.24308 34.4237C5.30926 34.5031 5.37545 34.582 5.44163 34.6615C5.44404 34.7305 5.49217 34.7623 5.54392 34.7904C5.68471 34.9524 5.82551 35.1144 5.9669 35.2764C5.98194 35.2954 5.99699 35.3137 6.01143 35.3327C6.19735 35.5167 6.38267 35.7013 6.56859 35.8853C6.574 35.9201 6.58904 35.9421 6.62815 35.9336C6.70457 35.9996 6.78158 36.0662 6.858 36.1322C6.87485 36.1701 6.85379 36.238 6.9308 36.23C6.97172 36.2569 7.01203 36.2844 7.05294 36.3113C7.06859 36.3492 7.0367 36.414 7.11131 36.4189C7.44825 36.7087 7.78519 36.9984 8.12214 37.2882C8.13477 37.3206 8.14921 37.3505 8.19253 37.342C8.35318 37.4673 8.51323 37.5926 8.67388 37.7179C8.67509 37.7576 8.69314 37.7778 8.73405 37.7711C8.97232 37.9569 9.21058 38.1421 9.44885 38.328C9.46028 38.3591 9.47292 38.3885 9.51504 38.3763C9.61432 38.4423 9.71359 38.5089 9.81287 38.5749C9.81889 38.6116 9.83453 38.6361 9.87665 38.6275C10.1462 38.8274 10.4067 39.0413 10.7112 39.188C10.719 39.2259 10.7377 39.248 10.7792 39.2388C11.0319 39.446 11.3026 39.6227 11.6083 39.7394C11.6324 39.7596 11.6558 39.7804 11.6799 39.8006L11.6775 39.7975C11.6817 39.8366 11.704 39.8556 11.7413 39.858H11.7407C11.7473 39.891 11.7629 39.913 11.8014 39.9045C11.988 39.9381 12.1065 40.1013 12.278 40.1637C12.287 40.1973 12.3032 40.2205 12.343 40.2113C12.4633 40.2774 12.5836 40.3434 12.7034 40.4094C12.7214 40.4754 12.7774 40.4626 12.8237 40.4687H12.8225C12.8297 40.5011 12.8448 40.5243 12.8839 40.5158C13.1131 40.5995 13.2924 40.7866 13.5373 40.8373C13.5566 40.9094 13.6215 40.8819 13.6661 40.8984C13.728 40.9742 13.8087 41.0121 13.9043 41.0201C13.9091 41.058 13.9278 41.0769 13.9669 41.069C13.9825 41.0806 14 41.0849 14.0192 41.0824C14.0295 41.1167 14.0475 41.1381 14.0866 41.1295C14.1865 41.1753 14.2864 41.2212 14.3869 41.2664C14.3941 41.3007 14.4109 41.3214 14.4495 41.3117L14.5066 41.3294C14.5295 41.3936 14.5794 41.3856 14.6294 41.3765C14.6438 41.3881 14.6606 41.3924 14.6787 41.3887C14.6895 41.4235 14.7088 41.4449 14.7485 41.4358C14.929 41.5219 15.1089 41.6081 15.2894 41.6937C15.3333 41.7824 15.4079 41.7445 15.4747 41.7402L15.4687 41.7665L15.5385 41.8099C15.6986 41.7787 15.8014 41.9364 15.9519 41.9376C15.9795 41.9884 16.003 42.0446 16.0734 42.0458C16.0933 42.0458 16.1131 42.0458 16.133 42.0458C16.2208 42.0409 16.2828 42.1387 16.3773 42.1088L16.3718 42.132C16.4242 42.1913 16.4946 42.1785 16.5608 42.1791C16.66 42.2121 16.7322 42.3197 16.855 42.2879C16.8754 42.2922 16.8959 42.2964 16.9158 42.3007C17.1799 42.4487 17.4687 42.5226 17.7581 42.5948C17.7978 42.599 17.8381 42.6033 17.8779 42.6076C17.9115 42.643 17.941 42.7023 17.9807 42.7103C18.6312 42.8442 19.2653 43.0508 19.9242 43.1504C20.1251 43.1804 20.3129 43.2892 20.5247 43.2659C20.7689 43.2452 21.0012 43.3686 21.2473 43.3301C21.349 43.3411 21.4507 43.357 21.5505 43.3185C21.8911 43.3216 22.234 43.3925 22.5704 43.28C22.6709 43.2763 22.7708 43.2721 22.8712 43.2684C23.0716 43.2684 23.2726 43.2696 23.4729 43.2696C23.5211 43.2788 23.5704 43.2941 23.5963 43.2305C23.7142 43.2256 23.8321 43.2213 23.9501 43.2164C24.0156 43.2164 24.0842 43.2305 24.133 43.1669C24.3532 43.1192 24.5734 43.0709 24.7936 43.0233C25.0102 43.0422 25.2226 43.0392 25.4079 42.8973C25.6053 42.8466 25.8032 42.7953 26.0006 42.7445C26.0192 42.772 26.0385 42.7726 26.0578 42.7445C26.077 42.7347 26.0969 42.7243 26.1161 42.7146C26.2497 42.6473 26.42 42.7268 26.5403 42.6064C26.7996 42.5196 27.0596 42.4328 27.3189 42.346C27.4188 42.2879 27.5475 42.3398 27.6354 42.2916C28.1865 41.9902 28.7966 41.8416 29.3658 41.5825C30.3279 41.1448 31.272 40.6778 32.1937 40.1606C32.2136 40.1453 32.2334 40.13 32.2533 40.1154C32.6943 39.8452 33.1354 39.575 33.577 39.3054C33.5969 39.2895 33.6173 39.273 33.6372 39.2571C34.0307 38.9558 34.4801 38.7357 34.8411 38.3879C34.9819 38.2864 35.1227 38.1849 35.2635 38.0841C35.2828 38.0669 35.302 38.0504 35.3219 38.0333C35.9482 37.526 36.5614 37.0039 37.1167 36.4146C37.4585 36.0521 37.8044 35.6927 38.1486 35.332C38.3153 35.263 38.4091 35.1328 38.4476 34.9579C38.6336 34.6957 38.8195 34.4335 39.0054 34.1706C39.021 34.1516 39.0373 34.1321 39.0529 34.1131L39.0547 34.1113C39.2112 34.1003 39.2401 33.9952 39.2316 33.8631C39.2497 33.843 39.2671 33.8222 39.2852 33.802C39.3405 33.7812 39.352 33.7348 39.352 33.6822C39.3706 33.6596 39.3899 33.6376 39.4085 33.6156C39.417 33.5 39.4916 33.4193 39.5499 33.3289C39.8508 32.8588 40.1095 32.3661 40.3243 31.8495C40.3399 31.8257 40.3556 31.8013 40.3712 31.7774C40.3772 31.7401 40.3827 31.7028 40.3887 31.6655C40.4037 31.6441 40.4194 31.6228 40.4344 31.6014C40.4404 31.5818 40.4464 31.5622 40.4525 31.5427C40.4663 31.5207 40.4801 31.4987 40.494 31.4767C40.5547 31.1845 40.6444 30.9008 40.7569 30.6245C40.7683 30.6007 40.7798 30.5762 40.7918 30.5524C40.8995 29.9576 41.021 29.3653 40.9922 28.7546C40.991 28.7283 41.0156 28.7014 41.0283 28.6745C41.0048 28.2026 40.9807 27.7301 40.9573 27.2582C40.9741 27.2086 40.9693 27.1659 40.9188 27.139C40.9031 26.8131 40.8875 26.4867 40.8718 26.1609C40.932 26.1016 40.9314 26.0429 40.87 25.9855C40.8327 25.7782 40.7948 25.571 40.7575 25.3638C40.8117 25.3063 40.8105 25.2495 40.7557 25.1926C40.7497 25.1095 40.7437 25.0264 40.7371 24.9432C40.7268 24.9249 40.7166 24.9065 40.7064 24.8888C40.6967 24.8057 40.6865 24.7225 40.6769 24.6394C40.6606 24.6186 40.6438 24.5984 40.6275 24.5777C40.6191 24.5147 40.6113 24.4517 40.6029 24.3888C40.6005 24.3515 40.5975 24.3142 40.5951 24.2775C40.6275 24.162 40.5565 24.0654 40.5391 23.9597C40.5511 23.9114 40.5367 23.8741 40.4958 23.8466C40.4747 23.6864 40.4537 23.5269 40.4326 23.3667C40.423 23.3441 40.4127 23.3215 40.4031 23.2995C40.3941 23.2567 40.3851 23.2139 40.376 23.1711C40.4362 23.0892 40.3526 23.1228 40.3273 23.1087C40.2539 22.8447 40.2569 22.5616 40.1275 22.3122C40.1342 22.2615 40.1179 22.2199 40.077 22.1888C40.0283 21.8697 39.9164 21.5695 39.8074 21.2682C39.7966 21.2516 39.7852 21.2351 39.7744 21.2186C39.7665 21.1942 39.7587 21.1703 39.7509 21.1459C39.7401 21.1245 39.7292 21.1025 39.7178 21.0811C39.7226 21.0628 39.7202 21.045 39.7094 21.0291C39.6931 21.0004 39.6775 20.9717 39.6612 20.9429C39.5277 20.3659 39.2539 19.8451 39.015 19.3126C38.7918 18.8151 38.5421 18.3273 38.2671 17.8578C38.074 17.5271 38.1191 17.2306 38.2581 16.9133C38.3592 16.6829 38.4591 16.4506 38.488 16.1963C38.5006 16.181 38.5054 16.1633 38.5024 16.1431C38.5969 15.8479 38.7124 15.5593 38.7587 15.2494C38.7726 15.2219 38.7864 15.1944 38.8002 15.1669C38.8273 14.9291 38.9886 14.7304 38.9916 14.4853C39.0012 14.47 39.0114 14.4547 39.0211 14.4389C39.1606 13.9321 39.3237 13.4314 39.4164 12.9125C39.4272 12.8911 39.438 12.8697 39.4488 12.8483C39.5999 12.2339 39.7509 11.6202 39.9025 11.0059C39.9188 11.0065 39.9344 11.0077 39.9507 11.0089C39.9555 11.1831 40.0734 11.2822 40.1907 11.3812C40.2707 11.5022 40.3502 11.6226 40.4302 11.7437C40.5914 12.0084 40.7533 12.2731 40.9146 12.5377C41.0469 12.7847 41.1594 13.0439 41.3327 13.2664C41.4218 13.5617 41.5975 13.8098 41.7521 14.0696C41.7984 14.3398 41.9687 14.5532 42.0782 14.794C42.1366 14.9474 42.1877 15.1045 42.2557 15.2537C42.4152 15.6034 42.5559 15.9597 42.6751 16.3253C42.6588 16.3644 42.6775 16.3809 42.713 16.3876C42.7455 16.4451 42.6841 16.538 42.7804 16.5716C42.8448 16.774 42.9085 16.9757 42.9729 17.178C42.9801 17.4268 43.1227 17.6285 43.1985 17.8529C43.1931 17.8743 43.1973 17.8932 43.2112 17.9104C43.2816 18.1524 43.2509 18.4189 43.3845 18.6451C43.429 18.8951 43.4723 19.1452 43.5728 19.3805C43.5559 19.6544 43.6342 19.9129 43.6943 20.174C43.7545 20.6012 43.8147 21.0285 43.8754 21.4558H43.8724Z" fill="#F00400"/>
<path d="M14.5048 41.3283C14.4856 41.3222 14.4663 41.3167 14.4477 41.3106C14.4398 41.2862 14.4326 41.2617 14.4248 41.2373C14.4116 41.2464 14.3983 41.2556 14.3851 41.2654C14.2852 41.2195 14.1853 41.1737 14.0848 41.1285C14.0626 41.1126 14.0397 41.0973 14.0175 41.0814C13.9982 41.0838 13.9808 41.0795 13.9651 41.0679C13.9441 41.0514 13.9236 41.0355 13.9025 41.019C13.8069 41.0111 13.7262 40.9732 13.6643 40.8974C13.6384 40.8399 13.5885 40.8344 13.5355 40.8363C13.2906 40.7861 13.1113 40.5985 12.8821 40.5147L12.8207 40.4664L12.8219 40.467C12.8105 40.3876 12.7978 40.3093 12.7016 40.4077C12.5812 40.3417 12.4609 40.2757 12.3412 40.2097C12.3195 40.1938 12.2978 40.1779 12.2762 40.162C12.1047 40.099 11.9862 39.9364 11.7996 39.9028C11.7792 39.8869 11.7593 39.871 11.7389 39.8557L11.7395 39.8564C11.7184 39.8362 11.6968 39.816 11.6757 39.7958L11.6781 39.7989C11.654 39.7787 11.6306 39.7579 11.6065 39.7378C11.3009 39.6204 11.0301 39.4444 10.7774 39.2371C10.7545 39.22 10.7323 39.2029 10.7094 39.1864C10.4049 39.0397 10.1444 38.8263 9.87486 38.6258C9.8538 38.6081 9.83214 38.591 9.81108 38.5733C9.7118 38.5072 9.61252 38.4406 9.51325 38.3746C9.49098 38.3587 9.46932 38.3422 9.44706 38.3263C9.20879 38.1405 8.97053 37.9553 8.73226 37.7694C8.7124 37.7517 8.69195 37.734 8.67209 37.7162C8.51144 37.5909 8.35139 37.4656 8.19074 37.3403C8.16728 37.3226 8.14381 37.3048 8.12035 37.2865C7.7834 36.9968 7.44646 36.707 7.10952 36.4173C7.10831 36.3714 7.09628 36.3311 7.05115 36.3097C7.01024 36.2828 6.96992 36.2553 6.92901 36.2284C6.9254 36.1801 6.90795 36.1422 6.85621 36.1306C6.77979 36.0645 6.70278 35.9979 6.62636 35.9319C6.60651 35.916 6.58665 35.8995 6.5668 35.8836C6.38088 35.6996 6.19556 35.515 6.00964 35.331C6.01686 35.2943 5.99881 35.2778 5.96511 35.2748C5.82432 35.1128 5.68352 34.9508 5.54213 34.7888C5.54453 34.716 5.51806 34.6665 5.43984 34.6598C5.37366 34.5803 5.30747 34.5015 5.24128 34.422C5.24309 34.3425 5.20879 34.2967 5.12757 34.2924L5.12456 34.2881C5.12275 34.2386 5.11192 34.1952 5.06078 34.1744L5.06018 34.1738C5.03912 34.1537 5.01806 34.1335 4.9964 34.1127C4.88088 34.0412 4.84658 33.9043 4.75994 33.8095C4.76355 33.7349 4.73406 33.6879 4.65585 33.6817C4.63057 33.6426 4.6053 33.6035 4.58063 33.5644C4.58304 33.4898 4.55356 33.4427 4.47534 33.4372C4.45067 33.3951 4.426 33.3535 4.40193 33.3113C4.38629 33.2924 4.37065 33.274 4.355 33.2551C4.07101 32.8455 3.83033 32.4097 3.60169 31.9665C3.61373 31.9298 3.59207 31.9182 3.56319 31.9108L3.56018 31.906C3.56018 31.8552 3.55777 31.8069 3.50242 31.7837C3.35801 31.3637 3.16367 30.9652 3.04694 30.5306C2.87546 29.893 2.79664 29.256 2.8556 28.5989C3.17149 28.5634 3.47654 28.4418 3.80085 28.4772C3.86643 28.4815 3.94044 28.5158 3.98376 28.4302C4.08304 28.4228 4.18292 28.4155 4.2822 28.4088C4.30205 28.41 4.32251 28.4112 4.34237 28.4124C4.36222 28.4137 4.38208 28.4149 4.40254 28.4167C4.51565 28.4669 4.59929 28.3623 4.70218 28.358C5.20218 28.3642 5.70218 28.3703 6.20218 28.377C6.33755 28.4821 6.48557 28.4131 6.62817 28.41C6.68773 28.4173 6.7467 28.4247 6.80627 28.432C6.85019 28.5176 6.9236 28.4803 6.98918 28.4772C7.24971 28.5182 7.51024 28.5592 7.77137 28.6007C7.81168 28.6007 7.85139 28.6007 7.89171 28.6001C7.91216 28.6019 7.93262 28.6032 7.95248 28.605C7.99219 28.6209 8.0325 28.6374 8.07221 28.6533C8.11072 28.6631 8.14923 28.6729 8.18773 28.6826C8.21481 28.7432 8.26295 28.7352 8.31289 28.7218C8.34899 28.7273 8.38509 28.7322 8.42119 28.7377C8.43262 28.7725 8.45308 28.7933 8.49219 28.7847C8.51325 28.7841 8.53431 28.7835 8.55536 28.7823C8.59508 28.8031 8.63418 28.8232 8.6739 28.844L9.15585 28.9699C9.1751 28.973 9.19435 28.9761 9.21421 28.9797C9.25091 29.0005 9.28822 29.0219 9.32492 29.0427C9.33575 29.0775 9.355 29.0989 9.39471 29.0904C9.41517 29.094 9.43503 29.0977 9.45548 29.1014C9.46331 29.1338 9.47775 29.1576 9.51686 29.1478C9.6029 29.2224 9.70579 29.231 9.81228 29.2236C9.83334 29.2377 9.8538 29.2517 9.87486 29.2658C9.8887 29.2823 9.90615 29.2896 9.92781 29.2872C9.95729 29.3379 10.0072 29.3422 10.0572 29.3459C10.0969 29.3673 10.1366 29.3887 10.1763 29.4101L10.1751 29.4082C10.1805 29.4449 10.1998 29.4633 10.2377 29.4571C10.3117 29.4828 10.3863 29.5091 10.4603 29.5348C10.4862 29.5531 10.512 29.5708 10.5385 29.5892L10.5397 29.5898C10.5632 29.643 10.6113 29.6466 10.6595 29.6521C10.6811 29.6717 10.7028 29.6907 10.7238 29.7102C10.725 29.7463 10.7395 29.7683 10.7792 29.7603C10.8364 29.786 10.8935 29.8111 10.9507 29.8367C10.9735 29.8533 10.997 29.8698 11.0199 29.8863C11.1589 29.9712 11.2978 30.0562 11.4362 30.1406C11.4435 30.1766 11.4627 30.198 11.5012 30.195C11.5752 30.2396 11.6492 30.2848 11.7232 30.3294C11.7347 30.412 11.7768 30.456 11.8634 30.4431L11.8652 30.4438C11.8833 30.4572 11.9013 30.4707 11.9194 30.4841C11.9838 30.5318 12.0481 30.5789 12.1125 30.6265C12.1288 30.6406 12.1444 30.6547 12.1607 30.6687C12.2654 30.7561 12.37 30.8435 12.4741 30.931C12.5096 30.9566 12.5451 30.9823 12.5812 31.0074C12.7214 31.1461 12.8616 31.2849 13.0024 31.4243C13.0235 31.445 13.0445 31.4658 13.0656 31.4866L13.0638 31.4854C13.1041 31.5276 13.1444 31.5691 13.1841 31.6113C13.2425 31.6718 13.3009 31.7317 13.3586 31.7923C13.3809 31.813 13.4037 31.8338 13.426 31.8546C13.4862 31.9145 13.5463 31.9744 13.6065 32.0343C13.6209 32.0832 13.6534 32.1156 13.7034 32.1083C13.716 32.1065 13.722 32.06 13.7311 32.0337C13.7509 32.0135 13.7702 31.9934 13.79 31.9726C13.8598 31.9274 13.8466 31.8558 13.8484 31.7886C13.8628 31.7647 13.8773 31.7409 13.8923 31.7171C13.9007 31.7048 13.9073 31.692 13.911 31.6773C13.9922 31.2696 14.2581 30.9456 14.4007 30.566C14.4176 30.5465 14.4338 30.5269 14.4507 30.5073C14.5969 30.2206 14.7431 29.9346 14.8893 29.6479C14.9037 29.6307 14.9182 29.6142 14.9326 29.5971C14.9729 29.4412 15.1125 29.3544 15.1841 29.2206C15.2004 29.2022 15.2166 29.1833 15.2329 29.1649L15.2377 29.1631C15.2557 29.1429 15.2744 29.1234 15.2924 29.1032C15.296 29.0812 15.2996 29.0598 15.3033 29.0378C15.3201 29.0195 15.3364 29.0005 15.3532 28.9822C15.3532 28.9822 15.358 28.9797 15.3574 28.9797C15.3761 28.9608 15.3947 28.9424 15.4128 28.9235C15.4519 28.8599 15.4904 28.7963 15.5295 28.7328C15.5493 28.712 15.5698 28.6912 15.5897 28.6698H15.5891C15.639 28.649 15.651 28.6062 15.654 28.5573C15.8159 28.3715 15.9164 28.13 16.142 28.0017C16.2563 27.9858 16.3201 27.9277 16.3033 27.8024L16.3021 27.8091C16.3255 27.7908 16.3496 27.7724 16.3731 27.7541C16.4212 27.7321 16.4332 27.6899 16.4362 27.6416C16.4603 27.578 16.5018 27.5334 16.5674 27.5139C16.6035 27.4955 16.6396 27.4766 16.6757 27.4582C16.6986 27.4356 16.7208 27.413 16.7437 27.391C16.8177 27.3855 16.8544 27.3439 16.8562 27.2693C16.8893 27.1807 16.9543 27.1232 17.0343 27.0811C17.1143 27.1465 17.0842 27.0578 17.0993 27.0328L17.1089 27.0273C17.1546 27.0212 17.1956 27.0077 17.2148 26.9582C17.2347 26.9374 17.2545 26.9166 17.2744 26.8958C17.3628 26.9582 17.3219 26.8671 17.337 26.8414C17.4555 26.7589 17.574 26.6764 17.6925 26.5939C17.7425 26.5939 17.7888 26.5853 17.8177 26.537C17.8586 26.4686 17.8983 26.3983 17.9952 26.4099C18.0157 26.3946 18.0355 26.3799 18.056 26.3646C18.0963 26.3377 18.136 26.3108 18.1763 26.2846C18.1889 26.2943 18.2016 26.3035 18.2142 26.3133C18.2226 26.2901 18.2305 26.2668 18.2389 26.2436C18.3544 26.1299 18.5235 26.1311 18.651 26.0437C18.704 26.0425 18.7539 26.0358 18.7786 25.9777C18.997 25.8866 19.2004 25.7546 19.4429 25.7283C19.4826 25.7362 19.4988 25.7112 19.5096 25.6794C19.7268 25.5406 19.9904 25.5828 20.2196 25.4923C20.2407 25.4758 20.2617 25.4593 20.2828 25.4428C20.4242 25.4208 20.5656 25.3988 20.707 25.3768C20.787 25.4275 20.7527 25.3481 20.766 25.323C20.8267 25.3169 20.8875 25.3114 20.9483 25.3053L20.9447 25.3273C21.0072 25.3854 21.0686 25.3854 21.1288 25.3242L21.1234 25.304C21.2046 25.3034 21.2858 25.3022 21.367 25.3016L21.6047 25.3096C21.645 25.2943 21.6853 25.279 21.7256 25.2637C21.9073 25.2564 22.0897 25.249 22.2714 25.2417C22.4055 25.301 22.5439 25.3346 22.6907 25.3016C22.7708 25.3218 22.8514 25.3426 22.9314 25.3627C23.0114 25.3627 23.0921 25.3627 23.1721 25.3627C23.1931 25.3615 23.2136 25.3603 23.2347 25.3597C23.3051 25.4147 23.3809 25.4514 23.4729 25.4226C23.5138 25.4214 23.5548 25.4196 23.5963 25.4184C23.654 25.4434 23.6968 25.5125 23.7738 25.4825C23.9934 25.5296 24.2124 25.5773 24.432 25.6244C24.4567 25.6879 24.506 25.6788 24.556 25.6678C24.6859 25.7472 24.8321 25.7699 24.9783 25.7912C25.0319 25.8304 25.0818 25.8799 25.1576 25.8548C25.1715 25.867 25.1871 25.8707 25.2046 25.8664C25.228 25.8805 25.2521 25.8946 25.2756 25.9092C25.3165 25.9312 25.358 25.9532 25.3989 25.9752C25.4146 25.9869 25.432 25.993 25.4513 25.9948L25.4477 25.9893C25.4711 26.0083 25.494 26.0272 25.5175 26.0462L25.5163 26.0455C25.5247 26.0767 25.5379 26.1018 25.577 26.0926C25.7202 26.0724 25.7972 26.2228 25.929 26.232C25.9495 26.2949 26.0072 26.2913 26.0548 26.3053C26.1149 26.3439 26.1751 26.3824 26.2359 26.4215C26.2569 26.4814 26.3129 26.4698 26.3568 26.482C26.7166 26.765 27.077 27.0474 27.4368 27.3305C27.4585 27.3464 27.4796 27.3623 27.5012 27.3781L27.5145 27.3916C27.5301 27.4105 27.5463 27.4301 27.562 27.4497L27.5638 27.4521C27.5824 27.4753 27.6017 27.4986 27.6203 27.5218C27.8033 27.7223 27.9868 27.9228 28.1697 28.1233C28.1871 28.1478 28.204 28.1722 28.2214 28.1961C28.2575 28.234 28.2936 28.2725 28.3297 28.3104C28.3436 28.3587 28.3442 28.4149 28.4031 28.4357L28.8929 29.1625C28.9092 29.1876 28.926 29.2132 28.9422 29.2383C28.9398 29.256 28.9453 29.2719 28.9567 29.2854C28.9729 29.308 28.9892 29.3306 29.0048 29.3532C29.0981 29.5085 29.1294 29.6974 29.2563 29.8349C29.2485 29.8753 29.2738 29.8924 29.3051 29.9046C29.4079 30.1259 29.5108 30.3466 29.6143 30.5678C29.6312 30.5929 29.6474 30.618 29.6643 30.643C29.6667 30.6767 29.6697 30.7103 29.6721 30.7445C29.6823 30.7653 29.6919 30.7861 29.7022 30.8069C29.7148 30.8496 29.7274 30.8924 29.7401 30.9352C29.7341 30.9737 29.7527 30.9921 29.7882 30.997C29.796 31.0178 29.8039 31.0391 29.8117 31.0599C29.7978 31.096 29.8189 31.1125 29.8472 31.1247C29.8514 31.1632 29.8562 31.2018 29.8604 31.2403C29.8502 31.2812 29.8737 31.2989 29.9061 31.3112C29.9302 31.3686 29.9537 31.4267 29.9777 31.4842L29.9699 31.5459C29.9808 31.5642 29.9916 31.5826 30.003 31.6009C30.0157 31.6633 30.0283 31.7262 30.0415 31.7886C30.0199 31.8766 30.0842 31.9108 30.1408 31.9494L30.1456 31.972C30.1583 32.0197 30.1234 32.1028 30.1998 32.1028C30.266 32.1028 30.3051 32.0349 30.3303 31.9714C30.3706 31.9298 30.411 31.8888 30.4513 31.8473C30.5078 31.824 30.5536 31.7892 30.5758 31.7287C30.7545 31.563 30.9332 31.3974 31.1119 31.2317L31.2371 31.1174C31.4597 30.942 31.6823 30.7659 31.9049 30.5905C31.9254 30.5929 31.9398 30.5844 31.9465 30.5636L31.9537 30.5611C31.9753 30.5446 31.997 30.5275 32.0181 30.511C32.198 30.3857 32.3779 30.261 32.5578 30.1357C32.5824 30.1179 32.6071 30.1002 32.6318 30.0819C32.7455 30.1008 32.7708 29.97 32.858 29.9437C32.8923 29.9553 32.9134 29.9419 32.9248 29.9089C33.1029 29.8123 33.281 29.7163 33.4591 29.6197C33.479 29.6081 33.4988 29.5965 33.5193 29.5843C33.9013 29.4162 34.284 29.2487 34.6661 29.0806C34.6907 29.0726 34.7154 29.0641 34.7401 29.0561L34.7383 29.0622C34.7732 29.0506 34.8075 29.039 34.8424 29.028C34.9639 28.9864 35.0854 28.9449 35.2076 28.9033C35.2575 28.9106 35.2996 28.8966 35.3333 28.8569C35.4152 28.8526 35.5054 28.8911 35.5698 28.8055C35.6312 28.7841 35.7124 28.8141 35.7509 28.7334C35.7708 28.7334 35.79 28.7297 35.8087 28.7218C35.8544 28.7315 35.9001 28.7438 35.9392 28.7034C35.9489 28.7144 35.9597 28.7156 35.9711 28.7065L35.985 28.7071C36.6191 28.5677 37.2587 28.4785 37.9092 28.484C37.9501 28.4717 37.991 28.4589 38.0319 28.4467C38.3929 28.4381 38.7539 28.429 39.1143 28.4204C39.1348 28.4302 39.1552 28.4393 39.1757 28.4491C39.1962 28.4614 39.2166 28.4736 39.2377 28.4858H39.2678L39.2966 28.4779C39.722 28.4742 40.1384 28.561 40.5596 28.6001C40.6197 28.6001 40.6799 28.5989 40.7401 28.5983C40.84 28.6136 40.9218 28.6973 41.0313 28.6741C41.0187 28.701 40.994 28.7279 40.9952 28.7542C41.0241 29.3648 40.9025 29.9578 40.7948 30.552C40.7834 30.5758 40.772 30.6002 40.7599 30.6241C40.648 30.9004 40.5584 31.1834 40.497 31.4762C40.4675 31.4878 40.4416 31.5019 40.4555 31.5422C40.4495 31.5618 40.4435 31.5814 40.4374 31.6009C40.4025 31.6076 40.3779 31.6217 40.3917 31.6651L40.3743 31.777C40.3358 31.7855 40.3189 31.8088 40.3273 31.8491C40.1125 32.3656 39.8538 32.8583 39.553 33.3284C39.4952 33.4189 39.4206 33.5002 39.4116 33.6151C39.3929 33.6371 39.3737 33.6597 39.355 33.6817C39.2852 33.6946 39.293 33.7514 39.2882 33.8016C39.2702 33.8217 39.2527 33.8425 39.2347 33.8627C39.1246 33.9079 39.1035 34.0186 39.0578 34.1109L39.056 34.1127C39.0211 34.1158 39.0006 34.131 39.0084 34.1702C38.8225 34.4324 38.6366 34.6946 38.4507 34.9575C38.281 34.9599 38.2539 35.1207 38.1703 35.2185C38.1185 35.2161 38.0764 35.2271 38.0379 35.2705C37.3303 36.0719 36.5379 36.7816 35.7389 37.4852C35.4092 37.7755 35.015 37.9852 34.7244 38.3239L34.7208 38.3263C34.7016 38.3251 34.6829 38.3251 34.6637 38.3275C33.9693 38.8172 33.2744 39.308 32.5415 39.7359C31.8237 40.1553 31.0987 40.5667 30.3538 40.9328C29.3153 41.4433 28.2425 41.8773 27.1438 42.2392C27.0499 42.2502 26.9651 42.2795 26.9043 42.359L26.9019 42.3608C26.7672 42.3535 26.6378 42.362 26.5445 42.4806L26.5403 42.4818C26.21 42.5234 25.8755 42.5472 25.5776 42.7227C24.8574 42.8358 24.1348 42.9385 23.4182 43.0705C23.2371 43.1041 23.0367 43.0192 22.8737 43.1567C22.8737 43.1934 22.8737 43.2301 22.8737 43.2667C22.7732 43.2704 22.6733 43.2747 22.5728 43.2783C22.4723 43.2533 22.3556 43.3144 22.269 43.2172C22.4182 43.2044 22.574 43.2423 22.7407 43.1793C22.4398 42.9764 22.3718 42.9837 22.2112 43.2178C22.0373 43.3132 21.852 43.2692 21.6697 43.2618C21.6673 43.1255 21.6378 43.0363 21.4892 43.1549C21.4489 43.1549 21.4092 43.1543 21.3688 43.1536C21.3532 43.1219 21.343 43.0681 21.3219 43.0632C21.2575 43.0491 21.2575 43.109 21.2491 43.1536C21.0885 43.1335 20.9284 43.1139 20.7678 43.0937C20.5656 43.1237 20.3682 43.0656 20.1775 43.0241C19.5217 42.8822 18.8345 42.878 18.2142 42.5711C18.1095 42.5191 17.9826 42.5051 17.8803 42.6053C17.8406 42.601 17.8002 42.5968 17.7605 42.5925C17.5277 42.3522 17.225 42.3186 16.9182 42.2985C16.9061 42.2526 16.8857 42.2483 16.8574 42.2856C16.7347 42.3174 16.6625 42.2098 16.5632 42.1768C16.5193 42.0821 16.438 42.1414 16.3743 42.1297L16.3797 42.1065C16.3225 41.9891 16.2732 41.8406 16.1354 42.0436C16.1155 42.0436 16.0957 42.0436 16.0758 42.0436C16.0602 41.9788 16.1077 41.8406 15.9543 41.9354C15.8039 41.9341 15.701 41.7764 15.5409 41.8076C15.5277 41.7764 15.5114 41.7501 15.4711 41.7642L15.4771 41.7379C15.4422 41.6114 15.3821 41.59 15.2918 41.6914C15.1113 41.6053 14.9314 41.5191 14.7509 41.4335C14.7274 41.4176 14.7046 41.4023 14.6811 41.3864C14.6631 41.3901 14.6462 41.3864 14.6318 41.3742C14.6161 41.2892 14.5927 41.2275 14.509 41.3271L14.5048 41.3283ZM25.9158 35.0272C25.92 35.0419 25.926 35.0559 25.9338 35.0694C25.8725 35.1067 25.8111 35.1433 25.7515 35.1794C25.3363 35.1715 24.9212 35.1629 24.5054 35.155C24.4206 35.0553 24.3051 35.0944 24.2004 35.0877C24.0355 35.0773 23.864 35.1189 23.7088 35.0272V35.0284C23.71 34.9758 23.6998 34.9288 23.6456 34.9055C23.494 34.7142 23.3586 34.5009 23.0848 34.4721C23.0842 33.9862 23.083 33.5008 23.0824 33.0148C23.3712 32.87 23.6595 32.7251 23.9483 32.5802C23.9693 32.5643 23.9904 32.5484 24.0108 32.5325C24.0734 32.4861 24.1384 32.4433 24.198 32.3932C24.7473 31.9286 25.1739 31.3894 25.225 30.6253C25.3779 30.5984 25.3225 30.4743 25.3351 30.382C25.3364 30.0727 25.3394 29.764 25.3363 29.4547C25.3357 29.363 25.3755 29.2438 25.228 29.2181C25.2232 29.1582 25.2178 29.0989 25.213 29.039C25.2154 28.9913 25.2094 28.9461 25.1667 28.9155C25.0469 28.7792 24.9272 28.6429 24.8075 28.5072C24.7786 28.4473 24.7286 28.4247 24.6661 28.4253L24.3815 28.2975C24.3676 28.2663 24.3478 28.2474 24.3123 28.2645C24.2924 28.2553 24.2726 28.2462 24.2527 28.237C24.1919 28.1637 24.1083 28.1814 24.0307 28.1808C22.9759 28.1802 21.9212 28.1802 20.8658 28.1808C20.7882 28.1808 20.7046 28.163 20.6432 28.2364C20.5836 28.2462 20.5235 28.256 20.4639 28.2657C20.4278 28.2474 20.4086 28.267 20.3947 28.2975C20.0175 28.3733 19.7353 28.6674 19.6811 29.0396C19.5758 29.5647 19.6498 30.0941 19.6378 30.6216C19.7172 30.8295 19.722 31.0612 19.8544 31.2531C20.3917 32.0325 21.1396 32.5307 21.9886 32.8785C22.2112 32.9696 22.3027 33.0674 22.2846 33.3076C22.2654 33.5607 22.2876 33.8162 22.278 34.0699C22.2714 34.2533 22.3893 34.5265 22.0169 34.4911C21.9796 34.4874 21.9272 34.5865 21.8911 34.6433C21.7846 34.809 21.6829 34.9777 21.5794 35.1446C21.2274 35.1421 20.8755 35.1397 20.5235 35.1372C20.2208 35.0681 19.9182 35.0321 19.6185 35.1525C19.5187 35.1452 19.4194 35.1384 19.3195 35.1311C19.3141 35.059 19.272 35.0272 19.2046 35.0241C19.1546 34.9972 19.1276 34.9367 19.0566 34.9386C18.5331 34.9532 18.0096 34.9098 17.4868 34.963C17.438 35.007 17.4356 35.048 17.4934 35.0865C17.6215 35.2271 17.7497 35.3683 17.8779 35.5089C17.8935 35.5517 17.9092 35.5939 17.9242 35.6366C17.9453 35.7387 17.9194 35.85 17.9838 35.9435C17.9308 35.9839 17.9302 36.0236 17.9838 36.0639C18.0554 36.2094 17.9687 36.4264 18.1787 36.5096C18.2202 36.5609 18.2593 36.5566 18.2966 36.5041C18.5662 36.4295 18.5656 36.6343 18.5957 36.8042C18.6799 37.2755 18.8718 37.6997 19.139 38.0916C19.157 38.1209 19.1739 38.1741 19.1931 38.1753C19.2575 38.179 19.2509 38.1191 19.2563 38.0745C19.3207 37.9748 19.3851 37.8758 19.4501 37.7762C19.4573 37.7706 19.4705 37.7627 19.4699 37.759C19.4663 37.7438 19.4579 37.7303 19.4513 37.7162C19.4428 37.3287 19.4344 36.9417 19.426 36.5542C19.4416 36.5016 19.4477 36.4521 19.3845 36.4264V35.7791C19.9597 35.8561 20.509 35.9771 21.062 35.9936C22.1252 36.026 23.1901 36.0181 24.2539 35.9539C24.3472 36.0328 24.4086 36.0169 24.4338 35.8922C24.799 35.875 25.1631 35.8512 25.5211 35.7638C25.6432 35.7338 25.7635 35.7607 25.7419 35.9417C25.7172 35.9527 25.6931 35.9631 25.6685 35.9741C25.6925 35.9851 25.7172 35.9955 25.7419 36.0065L25.7395 36.1281C25.6444 36.4105 25.7106 36.7009 25.6992 36.9876C25.6986 37.1911 25.6739 37.3978 25.7034 37.5964C25.7341 37.8 25.8147 38.0567 25.9886 38.113C26.1059 38.1509 26.124 37.8605 26.1877 37.7175C26.2654 37.7028 26.3297 37.6826 26.2389 37.5952C26.3021 37.432 26.3658 37.2694 26.429 37.1062C26.5012 37.0921 26.5692 37.0762 26.4898 36.9845C26.5084 36.9399 26.5331 36.8971 26.5445 36.8513C26.6029 36.6135 26.6907 36.4215 26.9928 36.4918C27.0692 36.5096 27.1258 36.449 27.1438 36.3757C27.21 36.111 27.2702 35.8445 27.3327 35.5786C27.4055 35.5651 27.4717 35.548 27.3929 35.4569C27.3929 35.416 27.3929 35.3744 27.3929 35.3334C27.4086 35.312 27.4242 35.29 27.4398 35.2686C27.4507 35.1653 27.4609 35.0626 27.4753 34.9245H26.1035C26.0259 34.8799 25.9603 34.8933 25.908 34.9673C25.8917 34.9746 25.8749 34.9826 25.8586 34.9899C25.8779 35.0034 25.8977 35.0162 25.917 35.0296L25.9158 35.0272ZM22.355 36.4221C21.8141 36.4221 21.2732 36.4209 20.7323 36.4234C20.6655 36.4234 20.5499 36.3897 20.5433 36.4588C20.5301 36.5927 20.4435 36.7602 20.6047 36.8647C20.9898 37.1153 21.1613 37.1997 21.2996 37.0004C21.5012 36.7095 21.7292 36.7143 21.9218 37.009C22.0036 37.1337 22.0993 37.2492 22.1847 37.3709C22.346 37.6001 22.5313 37.5928 22.7064 37.3703C22.8243 37.2211 22.9765 37.1001 23.1017 36.9564C23.216 36.825 23.3009 36.8378 23.4212 36.9558C23.6173 37.1477 23.9711 37.1263 24.1017 36.8977C24.1637 36.7895 24.1486 36.6165 24.1215 36.4821C24.0987 36.3665 23.9681 36.4258 23.8875 36.4252C23.3767 36.4197 22.8658 36.4221 22.355 36.4221Z" fill="white"/>
<path d="M32.4356 4.47207C31.411 5.57055 30.4278 6.70449 29.5403 7.92095C29.3797 8.14101 29.2034 8.11595 28.997 8.03832C28.42 7.82009 27.8285 7.64954 27.2298 7.50527C26.3532 7.29377 25.4783 7.0786 24.5728 7.02908C24.4061 7.01991 24.2443 6.94289 24.0716 6.97162C24.0409 6.93617 24.0042 6.92211 23.9585 6.93617C23.0325 6.85609 22.1017 6.7919 21.1775 6.86954C20.3959 6.93494 19.6029 6.88604 18.8345 7.04375C18.2178 7.17029 17.5945 7.25709 16.9826 7.43253C16.2792 7.63426 15.5758 7.83354 14.8857 8.07805C14.7659 8.12084 14.6901 8.10862 14.6017 8.00898C14.0728 7.4148 13.5373 6.82675 13.0036 6.23685C12.9874 6.21668 12.9717 6.19651 12.9555 6.17695L12.944 6.16533C12.929 6.15005 12.914 6.13538 12.8989 6.1201C12.5915 5.8059 12.284 5.49108 11.9765 5.17688C11.9681 5.1616 11.9567 5.14937 11.9416 5.13959C11.9302 5.13654 11.923 5.1292 11.9194 5.1182C11.9097 5.10169 11.8965 5.08886 11.8797 5.07969L11.8628 5.05829C11.8562 4.99716 11.8231 4.9611 11.7629 4.95132C11.7365 4.92442 11.7106 4.89813 11.6841 4.87124C11.6733 4.80338 11.6306 4.77404 11.5662 4.76976L11.5614 4.76548C11.5578 4.70008 11.5277 4.65729 11.4615 4.64506C11.4501 4.64384 11.4428 4.63773 11.4392 4.62672C11.4308 4.61388 11.42 4.60288 11.4067 4.59432C11.3791 4.55459 11.352 4.51486 11.3243 4.47512C11.4416 4.41094 11.5584 4.34614 11.6757 4.28196C11.6968 4.26667 11.7178 4.25078 11.7389 4.2355C11.778 4.20982 11.8165 4.18476 11.8556 4.15909C11.9994 4.10896 12.1149 3.99098 12.2732 3.97448C12.3273 3.9757 12.3773 3.96837 12.3983 3.90663C12.4194 3.88706 12.4398 3.86689 12.4609 3.84733C12.6986 3.78498 12.9278 3.70368 13.127 3.55208C13.2365 3.53007 13.3363 3.48545 13.4242 3.41393C13.6161 3.36197 13.8111 3.31734 13.9717 3.18714C14.216 3.09728 14.4765 3.04838 14.6901 2.88394C15.2124 2.81242 15.6823 2.5569 16.1919 2.44015C16.4567 2.37535 16.7286 2.33378 16.9777 2.21214C17.21 2.22742 17.4314 2.19135 17.636 2.07093C17.6968 2.06726 17.7581 2.06359 17.8189 2.05931C17.867 2.07521 17.9104 2.07704 17.9386 2.02386C18.2274 2.03853 18.4946 1.90833 18.7786 1.89121C18.8785 1.88999 18.9783 1.88877 19.0782 1.88754C19.3598 1.8472 19.6408 1.80746 19.9224 1.76712C20.204 1.79402 20.4759 1.66992 20.7593 1.71333C20.9055 1.73533 21.0475 1.71027 21.1817 1.64486C21.2629 1.64486 21.3448 1.64486 21.426 1.64486C21.6859 1.64486 21.9452 1.64486 22.2052 1.64486C22.3923 1.61735 22.5614 1.75184 22.7503 1.70538C23.0704 1.70599 23.3899 1.70721 23.71 1.70782C23.9795 1.82947 24.2744 1.77079 24.5523 1.82886C24.7353 1.82152 24.9055 1.94806 25.0945 1.88326C25.6408 1.95906 26.1811 2.06909 26.7184 2.19441C26.988 2.21519 27.2443 2.2916 27.4988 2.37779C27.7178 2.42853 27.9248 2.53306 28.1564 2.52145C28.6594 2.69872 29.1625 2.87661 29.6655 3.05388C29.9266 3.15596 30.1871 3.25744 30.4483 3.35952C30.5379 3.34546 30.5463 3.46833 30.627 3.46955C30.6673 3.47383 30.7082 3.47872 30.7485 3.483C30.8959 3.58876 31.0211 3.74158 31.2292 3.72324C31.4639 3.84366 31.6829 3.99893 31.9483 4.05089C31.9699 4.11874 32.0265 4.0949 32.0722 4.09918C32.1919 4.18415 32.3123 4.26973 32.432 4.3547C32.4332 4.39382 32.4338 4.43294 32.435 4.47268L32.4356 4.47207Z" fill="#F00400"/>
<path d="M10.7792 10.0896C10.6685 10.2485 10.512 10.3585 10.373 10.4881C9.77076 11.0511 9.19314 11.638 8.64501 12.2584C8.15103 12.8184 7.71059 13.418 7.25753 14.0091C7.02768 14.3087 6.83635 14.6388 6.57161 15.0398C5.50121 11.6606 4.43562 8.37797 4.76414 4.83372C5.43623 4.82577 6.05536 5.02933 6.64621 5.33253C7.07221 5.55137 7.46511 5.82645 7.84357 6.12231C8.67088 6.76722 9.26294 7.62364 9.84838 8.47699C10.198 8.98681 10.4711 9.55041 10.7786 10.0902L10.7792 10.0896Z" fill="#FF8300"/>
<path d="M38.8081 4.83313C38.8634 5.39918 38.8736 5.96585 38.8718 6.53434C38.8688 7.53013 38.7154 8.50575 38.5421 9.48197C38.3544 10.5389 38.068 11.5701 37.7798 12.5995C37.5644 13.3679 37.2942 14.1204 37.0463 14.8796C37.0379 14.9053 37.0084 14.923 36.9693 14.9652C36.6901 14.5654 36.4212 14.1712 36.1438 13.7836C35.698 13.1613 35.2112 12.5739 34.7142 11.9919C34.142 11.3232 33.4771 10.7596 32.8532 10.1495C32.8502 9.90743 33.0126 9.73994 33.1197 9.54983C33.9807 8.02344 34.923 6.56613 36.4428 5.61619C37.1679 5.16323 37.9368 4.8368 38.8075 4.83252L38.8081 4.83313Z" fill="#FF8300"/>
<path d="M17.7635 24.755C17.7665 24.7966 17.7696 24.8388 17.7726 24.8804C17.7702 24.9421 17.7671 25.0038 17.7647 25.0656C17.7419 25.087 17.719 25.1084 17.6967 25.1291C17.6474 25.1298 17.5951 25.1236 17.5758 25.1878C17.1727 25.4201 16.7347 25.263 16.3141 25.3064C16.2894 25.2496 16.2437 25.2477 16.1931 25.2593C16.0728 25.2551 15.9525 25.2508 15.8321 25.2465C15.8201 25.2214 15.8111 25.1921 15.7732 25.2086C15.731 25.2068 15.6889 25.2056 15.6468 25.2037C15.6083 25.2025 15.5698 25.2007 15.5313 25.1994L15.346 25.1408C15.2876 25.1389 15.2286 25.1371 15.1703 25.1353C14.8484 25.0558 14.5259 24.9769 14.204 24.8975C14.1859 24.8846 14.1673 24.8828 14.1474 24.8926C13.867 24.807 13.5866 24.7208 13.3063 24.6352C13.2948 24.6089 13.2846 24.5802 13.2467 24.5955C13.0054 24.5069 12.7635 24.4188 12.5223 24.3302C12.5096 24.2122 12.4344 24.2018 12.3418 24.222C11.7894 24.0521 11.3207 23.722 10.8418 23.412C10.8207 23.3913 10.7996 23.3711 10.7786 23.3503H10.7792C10.7738 23.3167 10.7593 23.2928 10.719 23.3026C10.3026 23.0043 10.1312 22.6076 10.1889 22.0843C10.2407 21.6112 10.1456 21.1325 10.343 20.66C10.4633 20.3721 10.6276 20.3201 10.8658 20.3617C11.4067 20.4559 11.926 20.6227 12.4368 20.8349C13.0289 21.08 13.5614 21.4382 14.1408 21.7041C14.1474 21.7414 14.1667 21.761 14.2064 21.7542C14.3893 21.8581 14.5728 21.9627 14.7557 22.0666C14.7641 22.1344 14.8171 22.1534 14.8694 22.1723C14.9904 22.2396 15.1107 22.3068 15.2316 22.3741C15.2365 22.4077 15.2485 22.4321 15.2888 22.4218C15.3063 22.4321 15.3255 22.437 15.346 22.437C15.3634 22.5043 15.4236 22.489 15.4687 22.5024C15.4886 22.5226 15.5084 22.5434 15.5283 22.5636C15.5487 22.6339 15.6119 22.5941 15.6522 22.6131L15.654 22.6168C15.6667 22.6822 15.7118 22.7121 15.7714 22.725C15.7906 22.7323 15.8099 22.7396 15.8291 22.7463C15.8478 22.8136 15.9091 22.7873 15.9507 22.8044C15.9663 22.8741 16.0235 22.857 16.0692 22.8631C16.0752 22.9407 16.1041 22.9939 16.1931 22.9811L16.1955 22.9829C16.213 23.0428 16.2617 23.0661 16.3123 23.0868C16.3273 23.1015 16.3448 23.1095 16.3658 23.1095C16.3881 23.1694 16.4374 23.1932 16.4928 23.2103C16.5391 23.2354 16.6059 23.2244 16.6294 23.2898C16.6414 23.3479 16.6763 23.3833 16.7334 23.3955C17.0686 23.593 17.2756 23.9188 17.5211 24.2061C17.5499 24.2923 17.5481 24.3932 17.6348 24.4518C17.6438 24.4971 17.6288 24.5558 17.6961 24.5698C17.701 24.5912 17.7052 24.6126 17.71 24.634C17.6967 24.6884 17.6895 24.7398 17.7635 24.7532V24.755Z" fill="black"/>
<path d="M32.3141 23.9664C32.2533 24.0061 32.1931 24.0464 32.1324 24.0862C32.0896 24.1045 32.0241 24.0715 32.006 24.1442C31.9278 24.1705 31.8502 24.1968 31.772 24.2225C31.7214 24.2158 31.6745 24.2152 31.6546 24.2769C31.4525 24.3594 31.2509 24.4419 31.0487 24.5245C31.0084 24.5159 30.994 24.5391 30.988 24.574C30.9675 24.5813 30.947 24.588 30.9266 24.5954C30.9085 24.5856 30.8905 24.5838 30.8712 24.5905C30.3249 24.8112 29.7455 24.9132 29.1829 25.0758C29.1191 25.0758 29.0505 25.0563 29.0048 25.1247C28.4597 25.1137 27.9416 25.3393 27.3941 25.31C27.1973 25.2996 27.003 25.3039 26.8081 25.2495C26.5012 25.1639 26.414 24.9848 26.5319 24.6712C26.7539 24.0776 27.1444 23.6191 27.6402 23.2505C27.704 23.2029 27.7304 23.1252 27.8032 23.0953C27.9007 23.1222 27.9483 23.0647 27.9813 22.9846C28.281 22.7939 28.58 22.6038 28.8797 22.4131C28.9639 22.4302 29.015 22.3947 29.0367 22.3116C29.1667 22.2266 29.2966 22.1417 29.4272 22.0567C29.4675 22.0653 29.4819 22.042 29.4874 22.0072C29.5475 21.9674 29.6077 21.9277 29.6679 21.888C29.7689 21.8868 29.8616 21.869 29.9103 21.7633C30.7551 21.2492 31.6209 20.7785 32.5578 20.457C32.5818 20.446 32.6059 20.435 32.63 20.4233C32.8586 20.3323 33.1005 20.3683 33.3363 20.3457C33.4164 20.3457 33.497 20.3457 33.577 20.3457C33.858 20.4307 33.8514 20.6813 33.8881 20.9063C33.867 20.9686 33.8875 21.0175 33.9368 21.0566L33.9422 21.078C33.9603 21.1838 33.9783 21.2895 33.997 21.3947C33.9904 21.4173 33.9837 21.4393 33.9765 21.4619C33.92 21.66 33.9176 21.8586 33.9771 22.0567C33.9813 22.2615 33.9813 22.4663 33.9922 22.671C33.9988 22.7921 33.9296 22.8679 33.8436 22.9094C33.6925 22.9828 33.6017 23.1057 33.5168 23.2401C33.4284 23.2304 33.3682 23.2695 33.3321 23.3508C33.2744 23.3734 33.231 23.4101 33.2154 23.4737C33.1709 23.4841 33.1131 23.4663 33.0945 23.5323C33.0343 23.5507 32.997 23.5941 32.9735 23.6509C32.917 23.687 32.8273 23.6253 32.7882 23.7151C32.7094 23.761 32.6312 23.8062 32.5523 23.852C32.5132 23.8435 32.4988 23.8679 32.4898 23.8997C32.4699 23.8991 32.4513 23.9034 32.4338 23.9132C32.3827 23.904 32.3351 23.9028 32.3147 23.9657L32.3141 23.9664Z" fill="black"/>
<path d="M38.8081 4.83342C37.9374 4.8377 37.1685 5.16412 36.4434 5.61709C34.923 6.56703 33.9807 8.02434 33.1203 9.55072C33.0132 9.74084 32.8502 9.90833 32.8538 10.1504C32.2792 9.76773 31.7876 9.26953 31.1919 8.91621C31.1324 8.88075 31.0836 8.82207 31.0217 8.79456C30.8568 8.72182 30.8736 8.64602 30.988 8.52987C31.6366 7.86724 32.3014 7.22233 32.9862 6.59698C33.6697 5.97347 34.3761 5.37869 35.1221 4.83831C35.5818 4.50577 36.0554 4.1879 36.5734 3.93727C37.0295 3.71598 37.4753 3.47514 37.9464 3.28503C38.1661 3.19639 38.3357 3.24652 38.4049 3.47086C38.5445 3.92382 38.7533 4.356 38.8099 4.83403L38.8081 4.83342Z" fill="#FF9400"/>
<path d="M10.7792 10.0895C10.4717 9.54976 10.1986 8.98615 9.84898 8.47634C9.26354 7.62237 8.67148 6.76657 7.84416 6.12166C7.4651 5.82641 7.0728 5.55071 6.64681 5.33187C6.05656 5.02867 5.43682 4.82512 4.76474 4.83306C4.8947 4.38682 5.0018 3.93386 5.17509 3.50046C5.27617 3.24861 5.41396 3.20582 5.66787 3.29812C6.97894 3.77554 8.11191 4.55921 9.20577 5.40767C10.4073 6.3405 11.5012 7.39741 12.5517 8.50079C12.6209 8.57353 12.7846 8.64138 12.5927 8.77587C12.0126 9.18298 11.4272 9.58277 10.8923 10.0528C10.8652 10.0767 10.8177 10.0773 10.7798 10.0889L10.7792 10.0895Z" fill="#FF9400"/>
<path d="M15.7623 17.6714L15.7798 17.8511C15.7798 17.9123 15.7798 17.9734 15.7798 18.0345C15.796 18.1232 15.6751 18.1825 15.7292 18.2791C15.7292 18.32 15.7305 18.361 15.7311 18.4019C15.7226 18.4392 15.7148 18.4759 15.7064 18.5132C15.6655 18.5529 15.6059 18.5767 15.6029 18.6464C15.5915 18.6678 15.5794 18.6892 15.568 18.7106C15.5542 18.7259 15.5409 18.7406 15.5271 18.7559L15.5181 18.7656C15.5012 18.7803 15.4844 18.7956 15.4675 18.8103L15.4711 18.8335C15.4489 18.8518 15.4266 18.8696 15.4043 18.8879L15.4073 18.8848C15.3881 18.8891 15.3694 18.8946 15.3514 18.902C15.21 18.957 15.0686 19.012 14.9266 19.0676C14.9073 19.0725 14.8887 19.0792 14.8706 19.0884C14.5084 19.1385 14.1456 19.1886 13.7834 19.2388C13.7268 19.1783 13.6685 19.1819 13.6089 19.2333C13.2256 19.2333 12.8424 19.2333 12.4591 19.2333C12.3989 19.1807 12.3406 19.1783 12.284 19.2394C11.574 19.2119 11.2557 18.971 11.0132 18.2784C11.0102 18.2387 11.0072 18.1996 11.0042 18.1598C11.0024 18.1183 11.0006 18.0767 10.9988 18.0351C11.0138 17.9979 10.9898 17.9838 10.9615 17.9722C10.9573 17.952 10.9531 17.9312 10.9495 17.9111C10.9495 17.831 10.9495 17.7503 10.9495 17.6702C11.0806 16.9935 11.4278 16.4605 11.9832 16.0662C12.0205 16.076 12.0373 16.054 12.0481 16.0228L12.0463 16.0252C12.1492 16.0301 12.2052 15.9488 12.2756 15.8944C13.1643 15.5014 14.0024 15.5026 14.7485 16.2227C14.7684 16.2416 14.8014 16.2465 14.8285 16.2575C14.8442 16.3468 14.9128 16.3731 14.9862 16.3932C15.0728 16.4935 15.1601 16.5931 15.2467 16.6934C15.2443 16.727 15.2581 16.7404 15.2912 16.7294C15.3129 16.7961 15.3454 16.8523 15.4176 16.8725C15.488 17.0027 15.4964 17.1696 15.6402 17.2558C15.6402 17.2558 15.6366 17.2472 15.6372 17.2472C15.645 17.3065 15.6528 17.3658 15.6607 17.4257L15.7202 17.5479C15.7094 17.5987 15.701 17.6488 15.7629 17.6739L15.7623 17.6714Z" fill="#FEFEFE"/>
<path d="M29.2124 15.9634C29.3442 15.8998 29.4759 15.8368 29.6083 15.7733C29.6486 15.7574 29.6883 15.7415 29.7286 15.725L29.7232 15.7011C29.7726 15.7066 29.8225 15.7128 29.8484 15.6541C30.1895 15.6498 30.5313 15.6339 30.8694 15.7024C30.9561 15.6975 31.0156 15.8014 31.1101 15.7635C31.2846 15.8466 31.4591 15.9298 31.6342 16.0135C31.66 16.0337 31.6853 16.0539 31.7112 16.0746C31.7683 16.118 31.8261 16.1608 31.8833 16.2042C31.9055 16.2244 31.9284 16.2452 31.9507 16.2654V16.2648C31.9549 16.3033 31.9759 16.3216 32.0138 16.321L32.0186 16.3228C32.0349 16.335 32.0511 16.3473 32.0674 16.3595C32.0945 16.3895 32.1215 16.4194 32.148 16.4494C32.1624 16.4689 32.1769 16.4885 32.1919 16.508C32.2539 16.5893 32.3165 16.6706 32.3785 16.7519C32.3953 16.777 32.4121 16.8021 32.429 16.8265C32.515 17.0252 32.6011 17.2245 32.6877 17.4231C32.6865 17.4843 32.6853 17.5454 32.6841 17.6065C32.6799 17.8474 32.6751 18.0876 32.6709 18.3285C32.6378 18.3407 32.6155 18.3596 32.6221 18.4C32.5385 18.562 32.4555 18.7246 32.3718 18.8866C32.3514 18.9073 32.3303 18.9281 32.3099 18.9489C32.0397 19.2167 31.6835 19.1891 31.3496 19.2399C31.3141 19.1879 31.2756 19.1861 31.2334 19.2319C30.8303 19.2558 30.4278 19.2588 30.0247 19.2301C29.9729 19.1812 29.9085 19.1959 29.8472 19.1928C29.7828 19.1158 29.722 19.1182 29.6643 19.2014C29.6041 19.1947 29.5439 19.1885 29.4837 19.1818C29.4645 19.1543 29.4458 19.1549 29.4272 19.183C29.2256 19.1513 29.0241 19.1189 28.8225 19.0871C28.8038 19.0773 28.7846 19.0767 28.7653 19.0852C28.6841 19.0571 28.6029 19.029 28.5223 19.0015C28.503 18.985 28.4837 18.9685 28.4645 18.9514C28.2184 18.8474 28.0355 18.6861 27.9801 18.4067C27.9645 18.3847 27.9489 18.3633 27.9332 18.3413C27.9254 18.2997 27.917 18.2582 27.9091 18.216C27.917 18.1964 27.9158 18.1775 27.9055 18.1585C27.9055 18.1157 27.9049 18.0729 27.9043 18.0301C27.9055 17.9305 27.9073 17.8309 27.9085 17.7312C27.9362 17.6279 27.9639 17.5246 27.9916 17.4213C28.0078 17.3999 28.0241 17.3785 28.0403 17.3577C28.0481 17.3376 28.056 17.3168 28.0638 17.2966C28.0752 17.2746 28.0866 17.2526 28.0981 17.2306C28.1396 17.0527 28.2726 16.9256 28.349 16.7672C28.3887 16.7214 28.4278 16.6755 28.4675 16.6297C28.4856 16.6052 28.5042 16.5814 28.5223 16.5569C28.5379 16.5398 28.5529 16.5227 28.5686 16.505L28.583 16.4903C28.6017 16.4744 28.6203 16.4585 28.639 16.4432L28.6426 16.4414C28.7046 16.4249 28.7443 16.3827 28.7689 16.324C28.8472 16.2586 28.926 16.1938 29.0042 16.1284C29.0686 16.1193 29.1035 16.0746 29.1318 16.0215L29.1276 16.0239C29.1558 16.0031 29.1841 15.9829 29.2118 15.9622L29.2124 15.9634Z" fill="white"/>
<path d="M25.225 30.6259C25.1745 31.39 24.7473 31.9285 24.198 32.3937C24.1384 32.4438 24.0734 32.4866 24.0108 32.5331C23.9663 32.5166 23.9543 32.5447 23.9483 32.5807C23.6594 32.7256 23.3712 32.8705 23.0824 33.0154C23.0084 33.5013 23.0108 33.9873 23.0848 34.4727C23.3586 34.5014 23.494 34.7148 23.6456 34.9061C23.6643 34.9489 23.6474 35.01 23.7094 35.029V35.0277C23.713 35.1494 23.7738 35.2154 23.8953 35.2087C24.1035 35.1964 24.3135 35.2441 24.5193 35.1806C24.929 35.2007 25.3393 35.2221 25.7491 35.1818C25.8105 35.1445 25.8718 35.1078 25.9332 35.0705C26.0325 35.0724 26.0933 35.0283 26.1023 34.9232H27.4741C27.4597 35.0614 27.4495 35.164 27.4386 35.2674C27.4025 35.2735 27.3803 35.2906 27.3917 35.3322C27.3917 35.3731 27.3917 35.4147 27.3917 35.4556C27.3718 35.496 27.3514 35.5369 27.3315 35.5773C27.2689 35.8432 27.2088 36.1097 27.1426 36.3744C27.1245 36.4478 27.068 36.5083 26.9916 36.4905C26.6895 36.4202 26.6023 36.6122 26.5433 36.85C26.5319 36.8964 26.5072 36.9392 26.4886 36.9832C26.4681 37.0236 26.4483 37.0645 26.4278 37.1049C26.3646 37.2681 26.3008 37.4307 26.2377 37.5939C26.1643 37.6104 26.1787 37.6648 26.1865 37.7162C26.1227 37.8592 26.1047 38.1496 25.9874 38.1117C25.8135 38.0554 25.7322 37.7987 25.7022 37.5951C25.6727 37.3965 25.6973 37.1899 25.698 36.9863C25.8032 36.7045 25.7371 36.4141 25.7383 36.1268L25.7407 36.0052C25.7407 35.9838 25.7407 35.9624 25.7407 35.941C25.7617 35.7601 25.642 35.7332 25.5199 35.7631C25.1618 35.8505 24.7978 35.8744 24.4326 35.8915C24.352 35.8511 24.3111 35.9275 24.2527 35.9532C23.1895 36.0174 22.1239 36.026 21.0608 35.993C20.5078 35.9758 19.9585 35.8554 19.3833 35.7784C19.3833 35.985 19.3833 36.2051 19.3833 36.4257C19.3785 36.4747 19.3785 36.5223 19.4248 36.5535C19.4332 36.9411 19.4416 37.328 19.4501 37.7156C19.4501 37.7357 19.4495 37.7553 19.4489 37.7755C19.3845 37.8751 19.3201 37.9741 19.2551 38.0738C19.216 38.0793 19.1769 38.0854 19.1372 38.0909C18.87 37.6997 18.6781 37.2748 18.5939 36.8035C18.5632 36.633 18.5638 36.4288 18.2948 36.5034C18.2557 36.5052 18.2166 36.507 18.1769 36.5089C17.9669 36.4257 18.0535 36.2087 17.9819 36.0633C17.9819 36.0229 17.9819 35.9832 17.9819 35.9428C17.9182 35.8493 17.944 35.738 17.9224 35.636C17.9362 35.5822 17.9452 35.5302 17.876 35.5082C17.7479 35.3676 17.6197 35.2264 17.4916 35.0858C17.4892 35.0448 17.4874 35.0039 17.485 34.9623C18.0078 34.9091 18.5319 34.9525 19.0547 34.9379C19.1257 34.936 19.1528 34.9966 19.2028 35.0235C19.1895 35.1164 19.225 35.1555 19.3177 35.1304C19.4176 35.1378 19.5168 35.1445 19.6167 35.1518C19.9134 35.2637 20.2178 35.1977 20.5193 35.1903C20.8712 35.1634 21.2286 35.257 21.5776 35.1439C21.6811 34.9764 21.7828 34.8083 21.8893 34.6426C21.926 34.5858 21.9777 34.4867 22.015 34.4904C22.3875 34.5259 22.2689 34.252 22.2762 34.0692C22.2858 33.8156 22.2635 33.5594 22.2828 33.307C22.3008 33.0661 22.2088 32.9689 21.9868 32.8778C21.1378 32.53 20.3893 32.0312 19.8526 31.2524C19.7208 31.0611 19.7154 30.8288 19.636 30.6216C19.7467 30.0971 19.6637 29.5665 19.6793 29.0396C19.7328 28.6667 20.015 28.3733 20.3929 28.2975C20.4254 28.3085 20.4495 28.2993 20.4621 28.2657C20.5217 28.2559 20.5818 28.2461 20.6414 28.2363C21.8442 28.2363 23.0475 28.2363 24.2503 28.2363C24.2702 28.2455 24.29 28.2547 24.3099 28.2638C24.3219 28.2987 24.3466 28.3072 24.3791 28.2968C24.4741 28.3396 24.5692 28.3818 24.6637 28.4246C24.6829 28.5022 24.7635 28.4698 24.8051 28.5065C24.9248 28.6428 25.0445 28.7792 25.1643 28.9149C25.16 28.9638 25.1498 29.0145 25.2106 29.0383C25.2154 29.0982 25.2208 29.1575 25.2256 29.2174C25.225 29.6056 25.2244 29.9932 25.2238 30.3813C25.2238 30.4626 25.2226 30.5439 25.2226 30.6252L25.225 30.6259Z" fill="black"/>
<path d="M22.3544 36.4228C22.8652 36.4228 23.376 36.4203 23.8869 36.4258C23.9669 36.4264 24.0975 36.3671 24.1209 36.4827C24.1474 36.6171 24.163 36.7901 24.1011 36.8983C23.9705 37.127 23.6167 37.1477 23.4206 36.9564C23.3002 36.8384 23.2154 36.8256 23.1011 36.957C22.9759 37.1013 22.8237 37.2217 22.7058 37.3709C22.5307 37.5934 22.3454 37.6007 22.1841 37.3715C22.0981 37.2492 22.0024 37.1343 21.9212 37.0096C21.7286 36.7156 21.5006 36.7101 21.299 37.001C21.1606 37.2003 20.9892 37.116 20.6041 36.8653C20.4428 36.7608 20.5295 36.5933 20.5427 36.4594C20.5493 36.3904 20.6654 36.424 20.7316 36.424C21.2725 36.4221 21.8135 36.4228 22.3544 36.4228Z" fill="black"/>
</g>
<defs>
<clipPath id="clip0_11_593">
<rect width="44" height="46" fill="white" transform="translate(0 0.359863)"/>
</clipPath>
</defs>
</svg>
