<svg width="38" height="39" viewBox="0 0 38 39" fill="none" xmlns="http://www.w3.org/2000/svg">
<g clip-path="url(#clip0_1_114)">
<path d="M1.63001 20.11C2.77001 28.13 4.74001 34.23 13.67 36.2C22.61 38.17 33.02 35.72 35.04 26.45C37.63 14.59 29.24 4.02999 17.57 1.75999C5.91001 -0.510006 0.570008 12.64 1.63001 20.11Z" stroke="white" stroke-width="3" stroke-miterlimit="10"/>
<path d="M13.79 12.72L13.07 28.8701C13.05 29.3801 13.42 29.8101 13.93 29.8601L16.31 30.1C16.91 30.16 17.41 29.66 17.36 29.06L15.87 12.71C15.83 12.3 15.54 11.96 15.14 11.87L14.96 11.83C14.38 11.69 13.81 12.12 13.78 12.72H13.79Z" fill="white" stroke="white" stroke-width="3" stroke-miterlimit="10"/>
<path d="M23.65 29.07L24.17 11.83C24.19 11.29 23.89 10.82 23.49 10.77L21.6 10.51C21.13 10.44 20.73 10.98 20.77 11.61L21.99 29.07C22.02 29.51 22.25 29.87 22.57 29.97L22.71 30.02C23.17 30.17 23.62 29.72 23.64 29.08L23.65 29.07Z" fill="white" stroke="white" stroke-width="3" stroke-miterlimit="10"/>
</g>
<defs>
<clipPath id="clip0_1_114">
<rect width="37.02" height="38.34" fill="white"/>
</clipPath>
</defs>
</svg>
