<svg width="39" height="39" fill="none" xmlns="http://www.w3.org/2000/svg"><path d="M2.143 20.432c1.14 8.02 3.11 14.12 12.04 16.09 8.94 1.97 19.35-.48 21.37-9.75 2.59-11.86 2.57-22.68-17.47-24.69-11.83-1.19-17 10.88-15.95 18.35h.01Z" stroke="#fff" stroke-width="3" stroke-miterlimit="10"/><path d="M29.353 10.672c-.9.24-21.97 8.38-21.97 8.38-1.26.45-2.48 1.18-1.75 1.83.63.56 4.91 1.73 6.06 2.04.18.05.32.18.38.36.35 1.11 1.65 5.13 2.07 6.11.49 1.14.65 1.63 1.46 1.06.62-.44 2.21-2.03 2.91-2.74.2-.2.51-.22.73-.04 1.14.92 4.5 3.6 5.64 4 1.38.49 1.71 0 2.12-1.46.41-1.46 3.5-16.27 3.5-16.27s0 .08.24-1.55c.24-1.63-.49-1.95-1.38-1.71l-.01-.01Zm-3.7 4.68c-.53.45-8.86 8.08-10.1 9.22a.51.51 0 0 0-.17.35l-.39 4.11-1.99-6.03c-.08-.23.01-.49.22-.62 2.06-1.35 12.62-8.21 12.92-7.99.33.24.08.49-.49.98v-.02Z" fill="#fff"/></svg>