<svg width="37" height="40" fill="none" xmlns="http://www.w3.org/2000/svg"><path d="M2.01 18.442c-.13 8.1.86 14.43 9.38 17.78 8.52 3.34 19.19 2.55 22.63-6.29 4.41-11.31-2.22-23.05-13.39-27.12s-18.5 8.09-18.62 15.63Z" stroke="#fff" stroke-width="3" stroke-miterlimit="10"/><path d="M7.98 29.703c2.25-.13 4.33-.6 6.24-2.08-2.02-.29-3.4-1.25-4.14-3.14.63-.04 1.17-.07 1.71-.1-2.01-.85-3.16-2.26-3.35-4.53.67.17 1.24.32 1.93.5-2.04-2.36-2.42-4.28-1.22-6.1 2.47 2.82 5.54 4.45 9.33 4.71 0-.57-.04-1.06 0-1.55.2-1.83 1.2-3.11 2.88-3.78 1.69-.68 3.27-.36 4.7.78.22.18.63.28.9.21.74-.19 1.45-.49 2.26-.78-.2.99-.91 1.57-1.47 2.31.64-.16 1.27-.33 1.91-.49.05.05.09.1.14.15-.5.54-.97 1.13-1.52 1.61-.41.35-.54.69-.55 1.21-.19 10.21-10.85 15.98-19.41 11.32-.12-.07-.23-.15-.35-.23l.01-.02Z" fill="#fff"/></svg>