<svg width="43" height="39" fill="none" xmlns="http://www.w3.org/2000/svg"><path d="M2.074 21.269c1.14 8.02 8.12 13.45 17.06 15.42 8.94 1.97 19.35-.48 21.37-9.75 2.59-11.86-5.8-22.42-17.47-24.69-11.67-2.27-22.01 11.55-20.96 19.02Z" stroke="#fff" stroke-width="3" stroke-miterlimit="10"/><path d="M29.344 29.779c0-1.44-.02-2.84.01-4.24.01-.49-.13-.64-.63-.63-2.85.02-5.7.01-8.71.01.27-.21.43-.33.59-.45 2.75-2.02 5.49-4.04 8.24-6.04.35-.25.51-.52.5-.97-.03-1.87-.01-3.74-.01-5.61v-.51c3.11 3.1 6.2 6.19 9.24 9.22-3.03 3.03-6.11 6.1-9.24 9.23l.01-.01ZM14.684 10.979l-9.34 9.56 9.34 9.58v-7.06l9.33-6.79h-9.33v-5.29Z" fill="#fff"/></svg>